<?xml version="1.0" encoding="utf-8"?>
<!DOCTYPE svg PUBLIC "-//W3C//DTD SVG 1.0//EN" "http://www.w3.org/TR/2001/REC-SVG-20010904/DTD/svg10.dtd">
<svg version="1.0" xmlns="http://www.w3.org/2000/svg" width="1024px" height="1024px" viewBox="0 0 1024 1024" preserveAspectRatio="xMidYMid meet">
 <g fill="#ffffff">
  <path d="M0 512 l0 -512 512 0 512 0 0 512 0 512 -512 0 -512 0 0 -512z m481.70 93 c7.85 -0.90 11.35 -1.55 18.15 -3.30 3.60 -0.95 7.40 -1.70 8.40 -1.70 1.45 0 6.35 1 13.50 2.80 2.40 0.60 12.05 1.75 18.10 2.15 6.55 0.45 14.95 0.05 19.65 -0.90 1.25 -0.25 3.70 -0.75 5.50 -1.05 1.80 -0.35 5.40 -1.35 8 -2.25 9.35 -3.20 10.15 -3 -11.10 -3.05 -17.30 0 -30.85 -0.65 -33.05 -1.50 -0.55 -0.20 -0.85 -0.90 -0.85 -1.95 0 -1.65 0.05 -1.70 3.65 -2.80 15.70 -4.75 48.65 -20.85 64.85 -31.80 5.50 -3.70 6.10 -3.95 15.85 -6.40 14 -3.60 25.05 -7.55 33.60 -12.05 13.10 -6.95 22.10 -14.50 26.80 -22.65 0.50 -0.85 0.40 -0.80 -5.25 2.95 -3.70 2.45 -8.95 5.65 -16.25 9.85 -2.20 1.30 -17 8.60 -22.40 11.10 -1.90 0.85 -4.20 1.55 -5.15 1.55 -1.55 0 -1.70 -0.10 -1.70 -1.50 0 -1.70 0.60 -2.30 7.25 -7.65 4.90 -3.95 11.15 -10.65 18.80 -20.25 3.85 -4.85 6.45 -7.60 7.75 -8.30 8.95 -4.85 11.60 -6.40 16.10 -9.45 10.15 -6.85 15.85 -15.85 13.25 -20.80 -0.50 -0.95 -1.10 -1.70 -1.40 -1.75 -0.50 -0.05 -2.75 4 -2.75 5 0 1 -3.55 5.85 -5.70 7.85 -3.50 3.25 -6.30 4.85 -8.40 4.85 -1.70 0 -1.90 -0.10 -1.90 -1.35 0 -0.70 0.55 -2.45 1.20 -3.85 2.40 -5.15 4.85 -13.90 4.80 -17.30 -0.05 -0.40 -0.60 -1.40 -1.25 -2.25 -1.20 -1.45 -1.20 -1.45 -2.25 -0.50 -0.55 0.50 -1.45 2.50 -2.05 4.45 -1.35 4.65 -2.15 7 -3.45 10.25 -1.50 3.80 -7.45 15.60 -8.45 16.75 -0.90 1.05 -10.60 5.85 -16.80 8.30 -2.20 0.85 -4.65 1.90 -5.50 2.25 -0.80 0.40 -4.20 1.60 -7.50 2.75 -3.30 1.15 -7.80 2.70 -10 3.50 -9.90 3.55 -28.30 9.40 -39.25 12.50 -4 1.10 -7.80 2.25 -8.50 2.50 -2.60 0.90 -16.40 4.90 -20.50 6 -4.25 1.10 -24.45 6.65 -26.45 7.30 -2.85 0.90 -5.80 0.90 -9.70 -0.05 -1.70 -0.40 -5.10 -1.20 -7.60 -1.75 -2.45 -0.60 -6.75 -1.70 -9.50 -2.45 -2.75 -0.80 -8.50 -2.35 -12.75 -3.55 -4.25 -1.15 -9.65 -2.70 -12 -3.35 -4.55 -1.30 -4.85 -1.40 -20.25 -6.15 -5.50 -1.70 -11.35 -3.50 -13 -3.95 -18.20 -5.45 -60.30 -21.65 -63.35 -24.40 -1.20 -1.05 -5.65 -9.90 -7.85 -15.55 -0.85 -2.20 -2.10 -6.45 -2.80 -9.40 -1.60 -6.70 -2.10 -7.35 -3.95 -5.20 -1.80 2.20 -2.05 3.55 -1.30 7.70 0.75 3.95 3.70 11.95 4.80 12.85 0.40 0.30 0.70 1.35 0.70 2.25 0 1.65 -0.10 1.70 -1.85 1.70 -2.30 0 -5.95 -2 -9.40 -5.15 -1.75 -1.55 -3.30 -3.75 -5.20 -7.30 -1.50 -2.75 -2.90 -5.05 -3.15 -5.05 -1.10 0 -1.60 2.55 -0.95 4.90 1.70 6.35 5.65 11.60 12.30 16.35 5.50 3.90 20.35 11.10 34.25 16.65 12.80 5.05 16.60 6.45 33.25 12.10 4.95 1.65 10.25 3.45 11.75 3.95 1.50 0.55 5.80 1.90 9.50 3.05 3.70 1.20 8.35 2.65 10.25 3.30 7.45 2.40 20.75 6.35 26.25 7.70 7.65 1.90 7.50 1.80 7.50 3.80 0 2.05 0.45 1.95 -14.25 2.70 -17.55 0.85 -27.85 0.50 -46.50 -1.45 -13.45 -1.45 -31.65 -7 -45.25 -13.80 -10.05 -5.05 -22.60 -12.55 -26.10 -15.65 -1.25 -1.05 -1.10 -0.40 0.40 2.05 6.85 10.90 23.25 21.35 43.95 27.90 2.90 0.90 19.45 5.10 22.50 5.65 0.85 0.15 2.65 0.55 4 0.80 8.30 1.75 14.30 2.20 29.50 2.20 11.80 0 17.25 -0.20 22.75 -0.85 14.30 -1.75 23.05 -3.35 25.55 -4.60 2.10 -1.10 5.40 -0.90 12.40 0.75 6.75 1.65 9.55 2.30 11.55 2.70 1.30 0.25 9.25 1.40 16.25 2.35 2.20 0.25 5.45 0.70 7.25 0.95 4.50 0.65 17.65 1.50 23.30 1.50 l4.70 0 0 1.90 0 1.90 -11.35 5.55 c-6.30 3.10 -13.55 6.35 -16.15 7.35 -2.65 0.95 -7.70 2.90 -11.20 4.30 -5.95 2.40 -15.95 5.85 -27.30 9.45 -2.60 0.80 -8.35 2.35 -12.75 3.45 -7.50 1.85 -9.40 2.25 -17.35 3.65 -1.75 0.30 -4.15 0.70 -5.40 0.95 -1.25 0.25 -4.60 0.65 -7.50 0.95 -2.90 0.35 -6.50 0.80 -8.05 1.05 -1.50 0.30 -4.55 0.50 -6.75 0.55 l-3.95 0.05 2.25 0.70 c5.20 1.70 18.40 4 23.70 4.15 1.10 0 4 -0.20 6.50 -0.45z m-44.20 -17.30 c-4.25 -1.80 -11.10 -4.65 -15.25 -6.30 -20.10 -8.10 -36.50 -16.50 -50 -25.60 -2.95 -2 -3 -2 -2.05 -0.55 1.75 2.65 7.95 9.20 11.30 11.90 10.20 8.25 20.35 13.75 33.25 18.10 9.80 3.30 20.75 5.60 27 5.70 l3.50 0.05 -7.75 -3.30z m151 0.55 c21.60 -2.80 44.45 -12.15 56.55 -23.10 3.85 -3.50 9.95 -10.05 9.95 -10.65 0 -0.25 -1.50 0.50 -3.35 1.70 -17.80 11.45 -38.05 19.95 -62.65 26.25 -15.10 3.85 -25.20 6.60 -25.50 6.90 -0.50 0.55 18.90 -0.30 25 -1.10z m-105.75 -1.45 c9.50 -2.10 30.60 -8.55 33.60 -10.25 0.60 -0.30 -0.75 -0.40 -4.15 -0.20 -2.80 0.15 -6.10 0.15 -7.35 -0.05 -2.25 -0.35 -2.35 -0.45 -2.35 -2.05 0 -1.60 0.10 -1.65 2.65 -2.25 4.10 -0.95 23.85 -7.20 25.30 -8 0.75 -0.40 -2.75 -1.10 -10.45 -2.05 -6.25 -0.80 -16.30 -0.85 -21 -0.05 -2.05 0.35 -7.85 1.30 -12.90 2.10 -5 0.85 -9.80 1.50 -10.60 1.50 -0.85 0 -1.50 0.25 -1.50 0.50 0 0.30 0.50 0.50 1.05 0.50 0.60 0 1.90 0.20 2.90 0.45 1 0.25 3.95 0.70 6.55 1.05 9 1.05 8.50 0.85 8.50 2.75 l0 1.65 -5.60 1.25 c-3.10 0.70 -7.45 1.65 -9.65 2.10 -2.20 0.45 -5.35 1.15 -7 1.55 -5.05 1.15 -11.10 0.90 -15.35 -0.60 -7.15 -2.55 -12.30 -4.70 -22.65 -9.45 -5.75 -2.70 -12.05 -5.45 -13.95 -6.10 -3.60 -1.30 -12.30 -3.35 -12.65 -3 -0.30 0.30 10.35 7.55 17.25 11.70 13.15 7.90 31.35 15.55 43.10 18.05 4.25 0.90 8.55 0.65 16.25 -1.10z m-49.75 -46.75 c-0.40 -0.25 -2.45 -1 -4.50 -1.70 -15.05 -5.10 -36.65 -13.50 -42.95 -16.80 -4.20 -2.20 -9.55 -4.50 -9.20 -3.90 0.50 0.85 5 4.90 7.75 7.05 7.15 5.45 24.20 11.50 40.15 14.30 1.95 0.30 4.30 0.80 5.25 1 2.50 0.55 4.45 0.60 3.50 0.05z m-84.35 -5.70 c-1.65 -1.75 -4.60 -5.70 -6.65 -8.75 -2.20 -3.35 -4.10 -5.70 -4.70 -5.85 -9.15 -2.40 -12.20 -3.45 -16.05 -5.40 -10.80 -5.40 -18.35 -12.50 -24.60 -23.05 -3 -5.15 -4.60 -9.05 -6.50 -16.05 -1.15 -4.35 -1.35 -6.25 -1.55 -14.40 -0.15 -8.25 -0.05 -9.95 0.90 -14.50 1.25 -5.75 3.70 -12.55 6.30 -17.30 5.60 -10.20 15.70 -19.60 25.95 -24.20 3.60 -1.60 5.70 -2.25 12.05 -3.85 l2.05 -0.50 0.30 -8.65 c0.45 -15.10 3.65 -24.80 11.75 -35.60 9.25 -12.35 22.50 -20.75 36.55 -23 7.05 -1.20 18.25 -0.95 25.05 0.45 3.15 0.65 6.35 1.45 7.10 1.75 1.30 0.50 1.35 0.45 2.10 -2.20 0.45 -1.45 0.80 -2.90 0.80 -3.15 0 -0.95 3.85 -11.80 5.40 -15.20 3.55 -7.75 8.90 -15.90 15.65 -23.65 6.90 -8 12.05 -12.40 22.45 -19.20 10.30 -6.80 24.25 -12 37 -13.85 7.55 -1.05 23.30 -0.90 30.40 0.30 11.05 1.95 18.25 4.15 26.85 8.20 17.75 8.45 33.05 22.05 43.05 38.30 7.35 11.95 12.10 23.80 14.50 36.15 1.45 7.40 1.45 7.40 2.70 7.10 0.70 -0.20 5.40 -0.45 10.40 -0.60 8.30 -0.20 9.65 -0.15 13.75 0.85 7.90 1.90 14.80 5.70 21.25 11.60 9.95 9.15 15.95 21.55 17 35.05 l0.35 4.60 6 0.55 c11.70 1.10 19.95 4 27.55 9.75 6.55 4.95 11.20 10 15.85 17.35 4.50 7.15 7.25 16 8.40 26.60 0.50 4.90 0.50 6.80 -0.20 12.75 -0.45 3.85 -1.40 9.05 -2.10 11.50 -2.70 9.35 -9.70 20.95 -16.40 27 -8.20 7.45 -19.95 13.15 -30 14.50 -2.10 0.30 -2.55 0.55 -3.50 2.15 -2.15 3.70 -6.55 9.90 -8.95 12.75 l-2.45 2.85 1.70 0 c6.50 0 18.90 -2.05 25.80 -4.30 4.90 -1.65 13.80 -6 18.40 -9.05 11.25 -7.55 20.80 -18.35 26.80 -30.40 5.20 -10.45 8.35 -23.35 8.35 -34.55 0 -3.30 -1.10 -12.90 -1.80 -15.70 -2.45 -9.85 -7.55 -21.15 -13.10 -29 -4.10 -5.85 -12.95 -14.80 -18.45 -18.65 -8 -5.65 -17.25 -9.70 -26.20 -11.55 -1.15 -0.25 -1.45 -0.80 -2.70 -5.10 -1.85 -6.60 -3.60 -10.70 -6.60 -15.75 -4.90 -8.05 -11.15 -15 -18.55 -20.60 -3.60 -2.65 -12.10 -7.45 -15.60 -8.75 -6.35 -2.35 -16.80 -4.60 -21.50 -4.60 -1.80 0 -2.50 -0.20 -2.50 -0.70 0 -2.30 -5.55 -17.70 -8.15 -22.55 -3.30 -6.10 -7.35 -12.90 -9.50 -16 -6.20 -8.75 -15.05 -18.05 -23.60 -24.80 -6.40 -5.05 -6.75 -5.30 -11.25 -8 -12.10 -7.35 -23.70 -12 -37 -14.90 -12.45 -2.70 -21.90 -3.40 -31.50 -2.35 -15.15 1.70 -24.20 3.90 -36.90 8.95 -4.20 1.70 -15.40 7.80 -20.45 11.15 -8.15 5.40 -19.35 15.85 -25.95 24.20 -6.35 8.05 -12.60 18.65 -15.45 26.25 -2.20 5.75 -2.20 5.75 -4.45 5.75 -1.15 0 -2.85 -0.25 -3.80 -0.55 -0.95 -0.25 -4.55 -0.50 -8 -0.50 -14.60 0 -30.10 5.80 -43.75 16.45 -16.15 12.60 -26.20 30.35 -29.75 52.45 l-0.60 3.60 -5.55 2.80 c-17.40 8.80 -32 26 -38.10 45 -1.85 5.65 -2.65 9.55 -3.50 16.70 -0.70 5.55 -0.75 7.60 -0.25 12 1.20 11.10 3.45 18.85 8.30 28.80 4.45 9.20 9.70 15.85 19.20 24.40 8.60 7.80 21.95 14.90 31.75 16.95 1.40 0.25 3.50 0.70 4.75 1 2.65 0.60 11.90 1.75 14.70 1.85 l1.90 0.05 -2.95 -3.15z m167.85 -2.05 c2.55 -0.70 4.20 -1.10 14.40 -3.85 2.10 -0.55 7.35 -1.90 11.60 -3 4.25 -1.10 13.25 -3.60 20 -5.50 6.75 -1.90 14.75 -4.15 17.75 -5 8.15 -2.25 15.45 -4.50 16 -5 0.30 -0.20 0.95 -2.60 1.45 -5.30 0.50 -2.70 2.70 -13.85 4.90 -24.75 3.70 -18.50 3.90 -19.95 3.25 -21.50 -0.40 -0.95 -1.35 -2.15 -2.15 -2.65 -1.40 -1 -2.80 -1 -67.70 -1 -65.25 0 -66.30 0 -68.20 1 -4 2 -3.80 1.30 -8.30 31.25 -0.55 3.70 -1.25 8 -1.50 9.50 -0.25 1.50 -1.05 6.35 -1.75 10.75 -0.70 4.40 -1.40 8.40 -1.55 8.85 -0.20 0.65 0.15 1.05 1.15 1.45 1.25 0.45 13.45 4.15 18.15 5.45 0.95 0.25 6.60 1.85 12.50 3.55 14.60 4.15 25.60 6.90 26.50 6.65 0.45 -0.10 2 -0.50 3.50 -0.90z m-72.70 -20.35 c0.15 -0.30 0.50 -1.80 0.70 -3.35 0.20 -1.60 1.75 -10.95 3.45 -20.85 3.15 -18.10 3.55 -20.55 4.50 -27 1.40 -9.25 4.10 -13.40 10.80 -16.55 0.60 -0.25 25.55 -0.55 61.35 -0.70 33.15 -0.15 60.45 -0.40 60.65 -0.60 0.70 -0.65 0.85 -4.80 0.30 -6.50 -0.30 -0.95 -1.45 -2.60 -2.60 -3.70 l-2 -1.95 -36.60 -0.25 c-34.10 -0.25 -36.70 -0.30 -38.45 -1.15 -2.30 -1.15 -4.10 -3.75 -5.50 -7.90 -1.40 -4.20 -2.95 -6.50 -5.20 -7.70 -1.80 -0.95 -2.85 -1 -24.65 -1 -12.55 0 -23.90 0.20 -25.20 0.40 -1.70 0.30 -2.85 0.90 -4.10 2.15 -3.75 3.75 -3.50 -0.20 -3.65 49.90 -0.10 30.25 0.05 45.15 0.40 45.50 0.60 0.60 3.40 1.65 4.60 1.75 0.45 0 1 -0.20 1.20 -0.50z m-73.35 -73.70 c0 -0.25 -0.30 -0.05 -0.70 0.45 -0.40 0.55 -0.75 1.20 -0.75 1.50 0 0.25 0.35 0.05 0.75 -0.50 0.40 -0.50 0.70 -1.15 0.70 -1.45z m143.05 -24.50 c0 -0.40 -0.20 -0.85 -0.50 -1 -0.30 -0.20 -0.50 0.25 -0.50 1 0 0.75 0.20 1.20 0.50 1 0.30 -0.15 0.50 -0.60 0.50 -1z m-124.70 -2.20 c2.95 -1.35 5.60 -4.30 6.45 -7.25 0.75 -2.45 0.70 -2.60 -0.50 -5.15 -2.25 -4.55 -7 -7.30 -10.60 -6.10 -2.05 0.65 -5.90 4 -6.95 6 -2.20 4.30 0.95 10.10 6.90 12.70 2.10 0.90 2.25 0.90 4.70 -0.20z m252.30 -0.85 c2.35 -1.50 4.15 -3.90 4.90 -6.55 0.60 -1.95 0.55 -2.30 -0.70 -4.90 -2.20 -4.40 -7.10 -7.25 -10.90 -6.20 -2.60 0.70 -6.15 4 -7.15 6.65 -0.75 2 -0.75 2.25 0.20 4.85 1.35 3.60 3.25 5.70 6.30 6.90 2.90 1.15 4.70 1 7.35 -0.75z m-128.05 -13.55 c-0.40 -0.70 -0.50 -0.45 -0.50 1.35 0.05 2.10 0.05 2.15 0.50 0.90 0.35 -0.90 0.35 -1.65 0 -2.25z m-0.05 -42.40 c0 -0.65 -0.20 -1.35 -0.50 -1.50 -0.30 -0.20 -0.50 0.40 -0.50 1.50 0 1.10 0.20 1.70 0.50 1.50 0.30 -0.15 0.50 -0.85 0.50 -1.50z m0 -15.95 c0 -0.70 -0.20 -1.40 -0.50 -1.55 -0.30 -0.20 -0.50 0.35 -0.50 1.20 0 0.85 0.25 1.55 0.50 1.55 0.30 0 0.50 -0.55 0.50 -1.20z m3.05 -15.10 c1.85 -0.90 4.40 -4 5.60 -6.65 0.85 -1.95 0.90 -2.45 0.35 -4 -1.45 -4.15 -5.70 -7.55 -9.35 -7.55 -3.90 0.05 -7.80 2.85 -9.40 6.80 -0.75 1.95 -0.75 2.20 0.20 5 1.15 3.20 2.90 5.10 6.30 6.75 2.10 1 3.90 0.90 6.30 -0.35z"/>
  <path d="M555.50 550.95 c-2.35 -0.20 -7.15 -0.65 -10.75 -0.95 -8.80 -0.75 -8.75 -0.75 -8.75 -2.80 0 -1.90 -0.85 -1.55 11 -4.45 7.90 -1.95 18.15 -4.80 22.50 -6.25 1.50 -0.50 5.25 -1.65 8.25 -2.50 16.05 -4.70 40.70 -13 53.15 -17.95 2.80 -1.15 5.80 -2.05 6.60 -2.05 1.35 0 1.50 0.15 1.50 1.65 -0.05 1.75 -1.35 3.65 -3.80 5.45 -0.85 0.65 -4.20 3.65 -7.50 6.75 -6.50 6.10 -13.50 11.75 -21.10 16.95 -9.90 6.75 -9.65 6.70 -30.35 6.65 -9.05 -0.05 -18.40 -0.25 -20.75 -0.50z m38.50 -9.45 c4.50 -1.65 11.10 -4.95 9.90 -5 -0.50 0 -1.75 0.35 -2.75 0.75 -1.05 0.40 -5.85 1.90 -10.65 3.25 -4.80 1.40 -8.80 2.65 -8.90 2.75 -0.15 0.10 1.75 0.10 4.20 -0.10 2.95 -0.20 5.70 -0.75 8.20 -1.65z"/>
 </g>
 <g fill="#61bcff">
  <path d="M515.15 317.60 c-1.30 -0.60 -1.65 -1.10 -1.65 -2.20 0 -1.15 -0.20 -1.40 -1.30 -1.40 -0.70 0 -1.60 -0.35 -2 -0.75 -0.50 -0.45 -1.70 -0.75 -3.25 -0.75 -2.30 0 -2.45 -0.10 -2.45 -1.25 0 -0.90 -0.25 -1.25 -1 -1.25 -1.45 0 -1.20 -1.10 0.65 -2.90 2.25 -2.20 4.90 -3.15 8.70 -3.15 2.65 0 3.60 0.25 5.50 1.40 3.45 2.15 4 3.20 4.35 8.55 l0.35 4.60 -3.15 -0.05 c-1.75 -0.05 -3.90 -0.45 -4.75 -0.85z"/>
  <path d="M412.50 303.25 c0 -0.35 -0.40 -0.90 -0.85 -1.20 -0.85 -0.45 -0.80 -0.65 0.30 -2.90 1.40 -2.95 7.30 -11.75 10.75 -16.15 3.85 -4.80 12.50 -13.65 17.45 -17.80 9.50 -7.95 22.80 -15.45 34.85 -19.75 10.05 -3.60 18 -5.30 31.30 -6.75 6.90 -0.75 8.95 -0.80 15.70 -0.25 21.30 1.65 38.10 6.95 55.50 17.50 4.45 2.70 4.85 2.95 11.25 8 2.75 2.15 7.30 6.25 10.15 9.05 5.35 5.35 13.60 15.20 13.60 16.30 0 0.35 0.70 1.30 1.50 2.10 1 1.05 1.50 2 1.50 3.05 0 1.55 0 1.55 -2.75 1.55 -2.95 0 -3.05 -0.05 -3.35 -3.75 -0.10 -1.20 -0.40 -1.55 -1.40 -1.65 -0.70 -0.10 -2.30 -0.50 -3.60 -0.95 -2.15 -0.75 -2.45 -0.75 -3 -0.05 -2.50 3.05 -8.50 3.35 -11.30 0.55 -0.35 -0.35 -1.10 -0.65 -1.65 -0.65 -0.50 0 -0.95 -0.25 -0.95 -0.55 0 -1.15 -2.95 -3.45 -4.40 -3.45 -1.45 0 -3.60 -1.20 -3.60 -2.05 0 -0.80 -1.35 -1.95 -2.20 -1.95 -0.45 0 -0.80 -0.35 -0.80 -0.75 0 -0.40 -0.35 -0.75 -0.80 -0.75 -0.45 0 -2.30 -1.10 -4.15 -2.45 -11.40 -8.40 -25.80 -14.60 -39.55 -17 -1.80 -0.30 -5.05 -0.90 -7.25 -1.25 -4.85 -0.85 -15.80 -0.65 -23 0.40 -8.95 1.25 -19.20 4.40 -27.75 8.45 -9.45 4.50 -21.80 13.50 -28.80 21.05 -3.35 3.65 -4.75 4.80 -5.70 4.80 -1.50 0 -3.50 1.25 -3.50 2.20 0 0.40 -0.55 0.85 -1.25 1 -0.70 0.20 -1.25 0.55 -1.25 0.80 0 0.30 -0.35 0.50 -0.75 0.50 -0.40 0 -0.75 0.25 -0.75 0.50 0 0.30 -1.60 0.50 -3.80 0.50 -3.30 0 -3.85 -0.10 -4.05 -0.95 -0.15 -0.55 -0.75 -1.10 -1.30 -1.25 -3.65 -0.95 -5.20 0.45 -6.65 6.10 -0.25 0.90 -3.70 0.80 -3.70 -0.15z"/>
  <path d="M594.30 299.70 c-0.75 -1.95 -0.35 -2.70 1.45 -2.70 1.65 0 1.75 0.10 1.75 1.75 0 1.60 -0.15 1.75 -1.45 1.75 -0.85 0 -1.55 -0.30 -1.75 -0.80z"/>
 </g>
 <g fill="#55affe">
  <path d="M455 412 c0 -0.95 0.35 -1 5 -1 4.65 0 5 0.05 5 1 0 0.95 -0.35 1 -5 1 -4.65 0 -5 -0.05 -5 -1z"/>
  <path d="M479.50 412 c0 -0.90 0.35 -1 3 -1 2.65 0 3 0.10 3 1 0 0.90 -0.35 1 -3 1 -2.65 0 -3 -0.10 -3 -1z"/>
  <path d="M613.60 388.90 c0.25 -1.70 1.90 -1.85 1.90 -0.20 0 1 -0.25 1.30 -1.05 1.30 -0.75 0 -1 -0.25 -0.85 -1.10z"/>
  <path d="M511.10 372.25 c-0.85 -1.90 -0.75 -2.75 0.40 -2.75 0.55 0 1 0.35 1 0.75 0 0.45 0.45 0.75 1.05 0.75 1 0 1 0.10 0.35 1.15 -1.05 1.55 -2.10 1.60 -2.80 0.10z"/>
  <path d="M477.35 340.15 c-0.50 -0.50 -0.40 -2.05 0.15 -2.40 0.80 -0.50 4 0.30 4 1.05 0 1.20 -3.25 2.30 -4.15 1.35z"/>
  <path d="M414.45 336.80 c-0.10 -0.15 -2.35 -0.75 -4.95 -1.30 -7.05 -1.60 -16.15 -2.45 -20.80 -1.95 -5.65 0.60 -6.20 0.55 -6.20 -0.30 0 -0.45 -0.45 -0.75 -1.05 -0.75 -1 0 -1.05 -0.20 -0.85 -2.50 0.15 -1.65 0.05 -2.50 -0.30 -2.50 -0.30 0 -0.90 -0.45 -1.30 -1 -0.55 -0.75 -1.30 -1 -2.85 -1 -1.25 0 -2.15 0.25 -2.15 0.55 0 1.05 -11.05 -0.90 -11.40 -2 -0.10 -0.30 -0.60 -0.55 -1.15 -0.55 -0.60 0 -0.95 -0.35 -0.95 -1 0 -0.55 0.05 -1 0.15 -1 0.05 0 2.05 -0.80 4.35 -1.80 5.30 -2.20 10.45 -3.80 16.25 -5 5.40 -1.10 16.60 -1.20 20.70 -0.25 3.10 0.80 2.90 0.95 4.85 -4.20 4.65 -12.10 13.15 -25.10 22.95 -35 2.50 -2.50 3 -2.95 1.20 -1 -1.85 1.90 -3.80 4.05 -4.35 4.75 -0.55 0.70 -1.95 2.40 -3.05 3.75 -2.85 3.50 -7.40 10.40 -9.40 14.20 -1.40 2.65 -1.55 3.25 -0.95 3.75 0.35 0.30 0.80 0.90 0.95 1.30 0.20 0.65 0.25 0.65 0.45 0 1.30 -4 1.70 -4.85 2.55 -5.60 0.55 -0.50 1.40 -0.90 1.95 -0.90 0.50 0 0.90 -0.20 0.90 -0.50 0 -0.25 0.35 -0.50 0.75 -0.50 0.40 0 0.75 0.20 0.75 0.45 0 0.25 0.85 0.55 1.95 0.75 1.35 0.20 2 0.60 2.20 1.30 0.20 0.80 0.65 1 2.55 1 1.25 0 2.30 -0.20 2.30 -0.50 0 -0.25 0.35 -0.50 0.75 -0.50 0.40 0 0.75 -0.20 0.75 -0.50 0 -0.25 0.55 -0.60 1.20 -0.80 0.65 -0.15 1.30 -0.70 1.45 -1.25 0.25 -1 3.55 -2.70 4.30 -2.25 0.25 0.15 2.10 -1.45 4.20 -3.60 6.75 -6.90 10.85 -10.40 16.20 -13.95 1.55 -1.05 3.55 -2.40 4.45 -3 5.10 -3.50 20.35 -10.10 20.95 -9.10 0.50 0.80 -0.20 1.35 -2.85 2.25 -10.75 3.55 -27.15 14.30 -35.65 23.30 -13.50 14.30 -20.55 26.50 -25.20 43.65 l-1.35 5 -2.50 0.15 c-1.35 0.10 -2.60 0.05 -2.75 -0.10z"/>
  <path d="M610 329.90 c-2.45 -7.25 -7.20 -17.10 -11.65 -24.20 -12.10 -19.30 -33.25 -35.75 -54.35 -42.20 -2.05 -0.65 -3.85 -1.30 -4 -1.45 -0.15 -0.15 -0.80 -0.35 -1.50 -0.35 -0.70 -0.05 -4.45 -0.65 -8.40 -1.40 -12.20 -2.25 -26.60 -1.70 -38.20 1.40 -4.45 1.20 -6.75 1.30 -6.15 0.30 0.20 -0.35 4.50 -1.60 6 -1.80 0.30 0 0.85 -0.15 1.25 -0.30 2.90 -1.05 5.10 -1.50 6.05 -1.25 0.65 0.15 1.40 0.10 1.75 -0.20 1.20 -1 14.70 -1.75 15.30 -0.80 0.30 0.45 0.40 0.45 0.40 0 0 -1.05 6.45 -0.90 6.85 0.15 0.20 0.60 0.40 0.65 0.70 0.15 0.30 -0.50 0.90 -0.50 2.95 -0.05 1.40 0.35 3.10 0.60 3.75 0.60 0.60 0 3.15 0.55 5.55 1.25 2.45 0.70 6.15 1.75 8.20 2.30 2.05 0.60 5 1.65 6.50 2.30 7.35 3.35 13.10 6.40 14.70 7.90 1 0.90 1.80 1.55 1.80 1.45 0 -0.35 2.90 1.15 5.60 2.95 1.55 1 3.30 1.85 3.90 1.85 0.55 0 1 0.35 1 0.75 0 0.40 0.35 0.75 0.80 0.75 0.95 0 2.20 1.20 2.20 2.15 0 0.85 2.05 1.85 3.80 1.85 1.25 0 4.20 2.40 4.20 3.45 0 0.30 0.40 0.55 0.90 0.55 0.55 0 1.45 0.45 2.10 1 2.40 2.10 5 1.90 7.40 -0.50 1.70 -1.70 2.45 -1.80 5.35 -0.70 1.10 0.40 2.95 0.90 4.10 1.15 l2.05 0.40 -1.30 -2.05 c-0.70 -1.15 -1.80 -2.65 -2.45 -3.35 -0.65 -0.70 -1 -1.40 -0.80 -1.60 0.15 -0.20 0 -0.35 -0.35 -0.35 -0.85 0 -1.95 -1.50 -2 -2.60 0 -0.50 -0.30 -0.90 -0.70 -0.90 -0.35 0 -1.10 -0.60 -1.60 -1.35 -1 -1.60 -4.15 -4.75 -8.70 -8.65 -4.60 -3.95 -6.70 -6 -6.25 -6 0.75 0 7.05 5.45 12.10 10.50 9.50 9.45 15.30 17.45 23 31.75 3.20 6 8.30 20.80 7.80 22.70 -0.20 0.80 -0.65 1.05 -1.90 1.05 -1.90 0 -4.70 -0.90 -5.80 -1.85 -0.70 -0.60 -0.95 -0.60 -1.60 0.10 -0.45 0.40 -1.45 0.75 -2.30 0.75 -1.20 0 -1.55 0.20 -1.55 0.95 0 0.55 -0.20 1.15 -0.50 1.30 -0.25 0.15 -0.50 0.85 -0.50 1.55 0 0.65 -0.20 1.20 -0.50 1.20 -0.25 0 -0.50 0.90 -0.50 2 0 1.75 -0.15 2 -1.10 2 -1 0 -1.40 -0.75 -3.40 -6.60z m4 -35.75 c0 -0.60 -1.65 -2.15 -2.35 -2.15 -0.70 0 -0.80 0.50 -0.35 1.70 0.30 0.75 2.70 1.15 2.70 0.45z"/>
  <path d="M351.50 330.80 c0 -3.30 0.50 -4.10 3.90 -6.10 1.80 -1.05 3.50 -2.05 3.75 -2.15 0.50 -0.20 0.25 2.80 -0.50 6.70 -0.45 2.15 -1.25 2.60 -5 2.70 -1.95 0.05 -2.15 -0.05 -2.15 -1.15z"/>
  <path d="M508.25 325.50 c-3.35 -1.60 -5.15 -3.50 -6.25 -6.60 -1.25 -3.60 -1.25 -5.70 -0.05 -8.50 1.60 -3.70 5.10 -6.20 9.05 -6.40 3.10 -0.20 5.70 0 5.35 0.35 -0.20 0.15 -1.75 0.25 -3.40 0.20 -2.60 -0.10 -3.25 0.05 -4.25 1 -0.65 0.60 -1.35 1 -1.50 0.80 -0.40 -0.35 -3.20 1.15 -3.20 1.70 0 0.20 0.50 0.45 1.15 0.55 0.80 0.10 1.05 0.45 1 1.30 -0.10 0.70 0.15 1.10 0.60 1.10 0.40 0 0.75 -0.20 0.75 -0.50 0 -0.25 0.35 -0.50 0.75 -0.50 0.40 0 0.75 0.25 0.75 0.50 0 0.30 0.45 0.50 0.95 0.50 0.55 0 1.30 0.35 1.75 0.75 0.40 0.40 1.30 0.75 1.95 0.75 1.40 0 3 1.50 2 1.85 -0.35 0.15 -0.65 0.40 -0.65 0.60 0 0.65 3.80 2.05 5.15 1.95 1.25 -0.10 1.25 -0.15 0.50 -1 -0.65 -0.70 -0.70 -1.05 -0.25 -1.50 0.35 -0.35 0.60 -1.50 0.60 -2.60 0 -1.75 -0.35 -2.40 -2.30 -4.40 -1.30 -1.35 -2.05 -2.40 -1.75 -2.40 1.10 0 3.45 1.50 4.55 2.85 2.80 3.60 3.20 7.50 1.20 11.50 -3 6.10 -9.15 8.70 -14.45 6.15z"/>
  <path d="M436.45 268.35 c0.95 -1 1.80 -1.85 1.90 -1.85 0.50 0 -0.70 1.45 -2 2.45 l-1.60 1.25 1.70 -1.85z"/>
  <path d="M439 266.35 c0 -0.10 1.20 -1.15 2.65 -2.35 1.45 -1.25 2.05 -1.60 1.35 -0.80 -1.25 1.40 -4 3.55 -4 3.15z"/>
  <path d="M444.75 261.65 c0.95 -1 6.40 -4.65 6.95 -4.65 0.25 0 -1.05 1.05 -2.95 2.30 -4.25 2.75 -4.65 3 -4 2.35z"/>
  <path d="M580.75 259 c-5.30 -3.45 -6.65 -4.50 -5.95 -4.50 0.60 0 11.20 6.90 11.20 7.25 0 0.60 -1 0.05 -5.25 -2.75z"/>
  <path d="M455 254.95 c1.30 -0.85 4.50 -2.50 4.50 -2.25 0 0.25 -4.50 2.80 -4.95 2.80 -0.15 0 0.05 -0.25 0.45 -0.55z"/>
  <path d="M570 252.25 c-1.25 -0.65 -2.70 -1.40 -3.25 -1.70 -0.55 -0.25 -0.70 -0.50 -0.40 -0.50 0.35 -0.05 2.05 0.75 3.75 1.70 3.50 1.95 3.40 2.35 -0.10 0.50z"/>
  <path d="M561.80 248.45 c-2.35 -0.85 -4.05 -2 -3 -1.95 0.65 0.05 6.55 2.90 5.95 2.90 -0.25 0 -1.60 -0.40 -2.95 -0.95z"/>
  <path d="M540.25 241.50 l-1.50 -0.40 1.35 -0.05 c0.75 0 1.50 0.20 1.65 0.45 0.15 0.30 0.25 0.45 0.15 0.45 -0.10 -0.05 -0.80 -0.25 -1.65 -0.45z"/>
  <path d="M497.50 239.80 c0 -0.10 0.90 -0.30 1.95 -0.40 1.10 -0.10 1.85 0 1.75 0.20 -0.25 0.40 -3.70 0.55 -3.70 0.20z"/>
  <path d="M527.50 239.50 c-0.55 -0.35 -0.20 -0.50 1.25 -0.50 1.10 0 2.35 0.25 2.75 0.50 0.55 0.35 0.20 0.50 -1.25 0.50 -1.10 0 -2.35 -0.25 -2.75 -0.50z"/>
 </g>
 <g fill="#49a3fe">
  <path d="M462.85 460.65 c-0.75 -0.20 -0.85 -0.55 -0.60 -1.55 0.80 -3.50 3.75 -5.45 8.95 -5.95 2.85 -0.25 3.30 -0.20 3.30 0.55 0 0.60 0.50 0.80 2 0.80 l2 0 0 2.05 0 2 -2.60 -0.05 c-1.45 -0.10 -3.10 0.05 -3.65 0.25 -6 2.35 -6.95 2.55 -9.40 1.90z"/>
  <path d="M602.30 459.85 c-0.65 -0.50 -0.85 -1.20 -0.70 -3.10 0.15 -2.40 0.20 -2.50 1.75 -2.65 2.35 -0.25 4.15 1.70 4.15 4.40 l0 2 -2.15 0 c-1.20 0 -2.55 -0.30 -3.05 -0.65z"/>
  <path d="M486.75 458.45 c-1.10 -0.20 -3.20 -0.40 -4.60 -0.40 l-2.65 -0.05 0 -1.75 c0 -1.70 0.05 -1.75 2 -1.75 1.10 0 2 -0.20 2 -0.50 0 -0.25 0.80 -0.50 1.75 -0.50 0.95 0 1.75 0.25 1.75 0.50 0 0.30 1.65 0.50 4 0.50 l4 0 0 1.95 c0 1.85 -0.10 1.95 -1.85 2.25 -2.30 0.35 -3.80 0.30 -6.40 -0.25z"/>
  <path d="M436.45 428.15 c-0.75 -1.95 -0.30 -9.05 0.75 -11.05 1.50 -2.90 4.05 -5 6.65 -5.45 1.30 -0.20 13.45 -0.40 26.90 -0.40 24.20 0 24.50 0 26.15 1.05 3.65 2.35 6.60 9.50 4.30 10.40 -1.50 0.55 -3.70 0.35 -3.70 -0.40 0 -1.50 -7.15 -1.60 -8.95 -0.10 -0.40 0.30 -3.75 0.80 -7.50 1.15 -7.60 0.65 -13.10 1.35 -18.30 2.40 -4.55 0.85 -8.95 1.65 -11.75 2 -1.20 0.15 -2.45 0.50 -2.75 0.70 -0.25 0.25 -2.90 0.60 -5.85 0.80 l-5.40 0.35 -0.55 -1.45z"/>
  <path d="M381.05 410.55 c-0.40 -0.55 -1.40 -1.15 -2.15 -1.30 -0.75 -0.20 -1.40 -0.55 -1.40 -0.75 0 -0.25 -0.55 -1 -1.25 -1.70 -1.10 -1.10 -1.25 -1.70 -1.25 -4.55 0 -3.80 0.60 -5.20 3.35 -7.85 5.75 -5.60 14.25 -4.05 17.85 3.20 1.50 3 1.60 4.90 0.50 8.25 -1.50 4.50 -2.70 5.10 -10.45 5.50 -4.10 0.20 -4.55 0.10 -5.20 -0.80z"/>
  <path d="M627.15 406.85 c-1.15 -0.60 -1.65 -2.25 -1.65 -5.40 0 -1.60 0.15 -1.95 1 -1.95 0.85 0 1 -0.35 1 -2.20 0 -1.85 0.25 -2.40 1.40 -3.30 1.20 -0.95 1.75 -1.05 4.55 -0.80 1.80 0.15 3.40 0.55 3.65 0.90 0.30 0.50 0.40 0.50 0.40 0.05 0 -0.35 0.55 -0.65 1.25 -0.65 0.70 0 1.25 -0.20 1.25 -0.50 0 -0.90 1.65 -0.50 3.60 0.80 1.40 1 1.90 1.70 1.90 2.70 0 1.80 -0.60 2 -6.15 2 -5.90 0.05 -6.35 0.35 -6.35 4.40 0 4.25 -0.20 4.60 -2.70 4.55 -1.10 -0.05 -2.55 -0.30 -3.15 -0.60z"/>
  <path d="M335 401 c0 -1.35 0.15 -1.50 1.50 -1.50 1.25 0 1.50 0.20 1.50 1.20 0 0.80 -0.35 1.30 -1.10 1.50 -1.80 0.45 -1.90 0.40 -1.90 -1.20z"/>
  <path d="M513 397 c0 -0.65 -0.35 -1 -1 -1 -1.10 0 -1.15 -0.05 -0.70 -1.20 0.45 -1.15 2 -1 2.90 0.30 1.10 1.60 1 2.90 -0.20 2.90 -0.65 0 -1 -0.35 -1 -1z"/>
  <path d="M404.50 392.75 c0 -1.10 0.20 -1.25 2 -1.25 2.20 0 2.75 1.05 1.05 2 -1.80 0.95 -3.05 0.65 -3.05 -0.75z"/>
  <path d="M613.50 389.55 c0 -1.15 0.70 -2.05 1.55 -2.05 0.70 0 0.95 0.35 0.95 1.25 0 1 -0.25 1.25 -1.25 1.25 -0.70 0 -1.25 -0.20 -1.25 -0.45z"/>
  <path d="M511.55 387.60 c-0.30 -0.60 -0.55 -2.50 -0.55 -4.30 l0 -3.30 1.45 0 c2.80 0 3.40 5.10 0.85 7.45 -1.20 1.15 -1.20 1.15 -1.75 0.15z"/>
  <path d="M418.50 380.75 c0 -1.20 1.25 -2.25 2.70 -2.25 0.60 0 0.80 0.50 0.80 1.75 0 1.65 -0.10 1.75 -1.75 1.75 -1.55 0 -1.75 -0.15 -1.75 -1.25z"/>
  <path d="M318 379.90 c0 -0.35 0.55 -2.95 1.25 -5.75 6.70 -27.75 27.55 -49.60 55 -57.70 2.75 -0.80 5.45 -1.40 6 -1.35 0.55 0.10 -0.25 0.50 -1.75 0.85 -5.25 1.25 -9.40 2.55 -12.45 3.95 l-3.05 1.40 1 1.05 c0.85 0.90 1.25 1 2.60 0.60 2.45 -0.70 5.25 -0.55 6.10 0.30 0.40 0.40 0.95 0.75 1.25 0.75 0.75 0 0.70 -0.85 -0.10 -1.15 -0.30 -0.10 0.75 -0.15 2.40 -0.10 5.20 0.15 5.75 0.20 5.75 0.95 0 0.45 -0.35 0.60 -1 0.45 -1.75 -0.45 -0.75 1.25 1.15 2 0.65 0.25 0.85 0.80 0.75 2.10 -0.05 0.95 -0.30 1.75 -0.50 1.75 -0.20 0 -0.40 0.25 -0.40 0.55 0 0.30 0.45 0.45 1 0.30 0.75 -0.20 1 0 1 0.75 0 0.50 0.20 0.85 0.45 0.65 1 -0.55 8.50 -0.70 13.80 -0.20 5.90 0.50 13.35 1.90 13.05 2.40 -0.10 0.15 0.40 0.30 1.10 0.35 0.75 0 2.30 0.20 3.45 0.45 2 0.35 2.15 0.30 2.65 -0.95 0.25 -0.70 0.75 -1.30 1.10 -1.30 0.45 0 0.45 -0.15 -0.10 -0.50 -0.60 -0.40 -0.60 -0.50 0.15 -0.80 1.40 -0.50 1.45 -0.05 0.60 3.10 -1.30 4.70 -1.15 4.45 -2.15 3.60 -1.15 -1.05 -4.80 -2.15 -10.95 -3.40 -9.25 -1.85 -20.90 -1.15 -29.45 1.75 -11.25 3.85 -22.10 12.10 -29.20 22.15 -3.85 5.50 -5.50 8.55 -7.30 13.60 -0.75 2.05 -1.85 4.25 -2.40 4.85 -1.30 1.40 -3.65 1.50 -4.80 0.15 -0.95 -1.10 -5 -1.95 -5 -1.05 0 0.30 -0.35 0.55 -0.75 0.55 -0.40 0 -0.75 0.20 -0.75 0.40 0 0.80 -2.55 1.60 -5 1.60 -1.90 0 -2.50 0.20 -2.50 0.75 0 0.40 -0.45 0.75 -1 0.75 -0.55 0 -1 -0.30 -1 -0.60z m38.90 -51.05 c0.15 -0.65 -0.15 -0.85 -1.50 -0.80 -0.90 0 -1.35 0.15 -1 0.30 0.30 0.10 0.60 0.55 0.60 1 0 1 1.70 0.60 1.90 -0.50z m0.05 -2.15 c0.25 -0.25 0.60 -0.95 0.80 -1.60 0.35 -1.15 0.30 -1.15 -1.10 -0.45 -0.75 0.40 -1.80 1.15 -2.25 1.65 -0.80 0.90 -0.75 0.95 0.65 0.90 0.80 0 1.70 -0.25 1.90 -0.50z m15.30 -2.20 c-0.15 -0.25 -0.80 -0.50 -1.40 -0.50 -0.90 0 -0.95 0.10 -0.35 0.50 1 0.65 2.15 0.65 1.75 0z m6.25 -1 c0 -0.25 -0.55 -0.50 -1.25 -0.50 -0.70 0 -1.25 0.25 -1.25 0.50 0 0.30 0.55 0.50 1.25 0.50 0.70 0 1.25 -0.20 1.25 -0.50z"/>
  <path d="M592.90 375.45 c-0.60 -0.35 -0.90 -1.10 -0.90 -2.45 0 -1.65 0.20 -2 0.95 -2 1.10 0 3.25 3.25 2.85 4.30 -0.30 0.80 -1.70 0.90 -2.90 0.15z"/>
  <path d="M432 374.20 c0 -0.55 0.15 -1.80 0.35 -2.85 0.25 -1.70 0.45 -1.90 1.60 -1.75 2.30 0.25 1.80 2.55 -1.10 4.85 -0.75 0.60 -0.85 0.55 -0.85 -0.25z"/>
  <path d="M512.20 372.60 c-0.60 -0.10 -1.20 -0.60 -1.35 -1.15 -0.20 -0.80 0 -0.95 1.70 -0.95 1.05 0 1.95 0.20 1.95 0.40 0 0.90 -1.30 1.90 -2.30 1.70z"/>
  <path d="M588.75 372 c-0.90 -1 -0.90 -1.05 0.15 -2.15 l1.10 -1.05 0 2.10 c0 1.15 -0.10 2.10 -0.15 2.10 -0.10 0 -0.60 -0.45 -1.10 -1z"/>
  <path d="M440.90 366.45 c-1.20 -0.70 -1.10 -1.55 0.25 -2.85 0.90 -0.85 1.80 -1.10 3.75 -1.10 1.45 0 2.60 0.20 2.60 0.45 0 0.75 -4.10 4.05 -4.95 4.05 -0.45 0 -1.20 -0.25 -1.65 -0.55z"/>
  <path d="M661.30 361.55 c-1.70 -1.60 -3.70 -3.30 -4.40 -3.75 -0.75 -0.50 -1.85 -1.65 -2.50 -2.55 -0.90 -1.35 -1.50 -1.75 -2.70 -1.75 -0.85 0 -2.80 -0.55 -4.25 -1.15 -5.80 -2.55 -10.65 -3.45 -17.90 -3.40 -3.75 0.05 -7.70 0.30 -8.80 0.55 -1.10 0.25 -2.90 0.50 -4 0.50 l-2 0 -1.45 -7.35 c-1.15 -6.05 -3.65 -14.30 -6.10 -20.40 -0.35 -0.90 -0.30 -0.90 0.35 -0.25 0.45 0.40 1.40 2.40 2.20 4.40 0.90 2.30 1.55 3.40 1.80 3 0.30 -0.45 0.65 -0.30 1.40 0.55 l1.05 1.20 0 -1.20 c0 -0.70 0.25 -1.50 0.60 -1.85 0.45 -0.45 0.45 -0.75 0.05 -1.15 -0.65 -0.65 -0.15 -1.40 1.65 -2.35 0.80 -0.40 1.20 -0.40 1.65 0.05 0.45 0.45 0.80 0.45 1.55 -0.05 1.35 -0.85 2.75 -0.75 3.55 0.20 0.65 0.80 1.40 1.15 3.85 1.90 0.80 0.30 1.10 0.15 1.10 -0.40 0 -0.45 0.25 -0.80 0.60 -0.80 0.30 0 0.15 -0.35 -0.40 -0.75 -0.80 -0.65 -0.85 -0.80 -0.20 -1.25 0.55 -0.35 0.55 -0.50 0.10 -0.50 -0.35 0 -0.60 -0.30 -0.55 -0.60 0.20 -1.85 -0.10 -2.90 -0.90 -2.90 -0.80 0 -0.80 -0.10 -0.15 -0.55 0.55 -0.35 0.60 -0.60 0.15 -0.75 -0.35 -0.15 -0.45 -0.60 -0.30 -1 0.15 -0.40 0 -0.70 -0.30 -0.70 -0.30 0 -0.40 -0.35 -0.25 -0.75 0.20 -0.40 0.05 -0.75 -0.30 -0.75 -0.30 0 -0.40 -0.20 -0.25 -0.50 0.15 -0.25 0.10 -0.50 -0.20 -0.50 -0.30 0 -0.40 -0.35 -0.25 -0.75 0.20 -0.40 0.05 -0.75 -0.30 -0.75 -0.30 0 -0.40 -0.20 -0.25 -0.50 0.15 -0.25 0.05 -0.50 -0.25 -0.50 -0.30 0 -0.40 -0.20 -0.25 -0.50 0.15 -0.25 0.05 -0.50 -0.25 -0.50 -0.35 0 -0.50 -0.30 -0.35 -0.70 0.15 -0.40 0.05 -0.85 -0.30 -1 -0.45 -0.15 -0.40 -0.25 0.05 -0.25 0.35 -0.05 1.20 1.25 1.90 2.80 1.45 3.25 4.55 12.55 5 15.05 0.30 1.55 0.40 1.60 2.75 1.60 4.65 0 15.15 2.25 21.45 4.60 6.15 2.30 16.40 8.80 21.40 13.55 1.90 1.85 2.10 2.30 2.10 4.45 l0 2.40 -2.90 0 c-1.60 0 -3.15 -0.25 -3.45 -0.55 -0.35 -0.35 -0.90 -0.15 -1.80 0.75 -0.70 0.70 -1.55 1.30 -1.90 1.30 -0.30 0 -1 0.50 -1.55 1.10 -1.10 1.25 -0.95 3.50 0.35 4.90 0.40 0.45 0.75 1.55 0.75 2.40 0 2.60 -1.90 2.15 -5.70 -1.35z"/>
  <path d="M510.70 357.75 c-0.40 -1.60 -0.40 -1.60 1.95 -2 1.55 -0.30 1.85 -0.20 1.85 0.50 0 2.70 -3.20 3.95 -3.80 1.50z"/>
  <path d="M568.25 357.40 c-1.60 -0.90 -3.75 -3.40 -3.75 -4.40 0 -1.20 1.50 -1.65 3.20 -1.05 1.70 0.65 1.75 2.05 0.05 2.05 -0.70 0 -1.25 0.25 -1.25 0.50 0 0.30 0.80 0.50 1.75 0.50 1.60 0 1.75 0.10 1.75 1.50 0 1.65 -0.25 1.75 -1.75 0.90z"/>
  <path d="M455.15 352.75 c1.80 -1.60 2.35 -1.55 2.35 0 0 1.10 -0.20 1.25 -1.85 1.25 l-1.90 -0.05 1.40 -1.20z"/>
  <path d="M556.85 349.15 c-0.75 -0.20 -0.90 -0.60 -0.75 -1.90 0.15 -1.30 0 -1.75 -0.70 -1.90 -0.45 -0.15 -0.95 0 -1.05 0.30 -0.35 1.05 -1.95 -0.10 -1.75 -1.25 0.10 -0.95 0.45 -1.15 1.95 -1.10 2 0.05 4.25 1.45 4.75 2.90 0.30 0.90 -0.65 3.35 -1.25 3.25 -0.15 -0.05 -0.70 -0.15 -1.20 -0.30z"/>
  <path d="M465 347.60 c0 -2 2.90 -4.75 4.75 -4.50 0.80 0.10 1.65 0.55 1.95 1.05 0.45 0.75 0.20 1.20 -1.55 2.85 -1.50 1.45 -2.55 2 -3.65 2 -1.30 0 -1.50 -0.15 -1.50 -1.40z"/>
  <path d="M511.35 343.15 c-0.50 -0.45 -0.40 -2.90 0.15 -4.35 0.35 -1.05 0.30 -1.30 -0.25 -1.30 -1.10 0 -0.90 -1.55 0.40 -3.15 l1.15 -1.45 1.15 2.50 c0.85 1.80 1.10 2.95 0.85 4.20 -0.50 2.85 -2.35 4.70 -3.45 3.55z"/>
  <path d="M543 339.65 c-0.70 -0.45 -1.35 -0.90 -1.50 -1 -0.10 -0.10 0.10 -0.40 0.50 -0.65 0.65 -0.40 0.60 -0.50 -0.15 -0.50 -1.30 0 -2.25 -2.35 -1.30 -3.25 0.65 -0.65 1.05 -0.60 3.10 0.75 2.75 1.75 3.85 3.55 2.85 4.75 -0.80 1 -1.95 0.95 -3.50 -0.10z"/>
  <path d="M478.65 339.45 c-2.05 -0.60 -2.05 -1.15 -0.05 -3 2.35 -2.25 3.10 -2.50 4.30 -1.65 1.65 1.15 1.40 3 -0.50 4.20 -0.90 0.55 -1.75 1 -1.90 0.95 -0.15 0 -1 -0.25 -1.85 -0.50z"/>
  <path d="M490.35 331.65 c-1.50 -0.40 -0.80 -2.25 1.50 -3.80 2.20 -1.55 4.25 -1.60 4.85 -0.10 0.45 1.20 -0.05 1.90 -2.20 3.15 -1.95 1.10 -2.45 1.20 -4.15 0.75z"/>
  <path d="M529.80 330.60 c-2.35 -1.65 -3.05 -2.70 -2.65 -3.80 0.45 -1.15 3 -0.65 5.25 1.05 1.25 0.95 1.60 1.55 1.50 2.55 -0.20 1.85 -1.70 1.90 -4.10 0.20z"/>
  <path d="M387.55 329.90 c-0.05 -1.10 1.30 -2.40 2.50 -2.40 0.90 0 0.95 0.10 0.25 0.75 -0.40 0.40 -1.05 0.75 -1.50 0.75 -0.40 0 -0.85 0.40 -0.95 0.90 -0.20 0.75 -0.25 0.75 -0.30 0z"/>
  <path d="M384 329.75 c0 -0.60 1.20 -2.75 1.55 -2.75 0.20 0 0.35 0.70 0.35 1.50 -0.05 1.10 -0.30 1.50 -1 1.50 -0.50 0 -0.90 -0.10 -0.90 -0.25z"/>
  <path d="M421.65 326.65 c-0.95 -0.35 -0.80 -1.15 0.25 -1.15 0.70 0 0.75 -0.10 0.10 -0.50 -0.65 -0.40 -0.60 -0.50 0.15 -0.50 0.90 0 1.10 0.85 0.45 1.80 -0.20 0.30 -0.65 0.45 -0.95 0.35z"/>
  <path d="M508.25 325.50 c-3.40 -1.60 -5.15 -3.50 -6.30 -6.70 -0.55 -1.60 -0.90 -3.30 -0.85 -3.75 0.10 -0.45 0.70 0.70 1.35 2.55 1.30 3.90 2.80 5.40 6.55 6.65 3.45 1.15 6.95 0.65 9 -1.25 0.85 -0.80 1.90 -1.50 2.40 -1.60 0.45 -0.10 0.85 -0.60 0.90 -1.15 0.10 -2 0.20 -2.25 1.10 -2.30 0.50 0 0.60 -0.15 0.25 -0.30 -0.90 -0.35 -0.80 -1.15 0.10 -1.15 0.40 0 0.75 -0.20 0.75 -0.50 0 -0.25 -0.20 -0.50 -0.50 -0.50 -0.25 0 -0.50 -0.35 -0.50 -0.75 0 -0.40 0.35 -0.75 0.75 -0.75 1 0 1 2 0 4.35 -1.65 3.95 -5.25 7.30 -7.30 6.80 -0.50 -0.15 -0.95 -0.05 -0.95 0.25 0 0.30 -0.45 0.40 -1 0.25 -0.55 -0.15 -1 0 -1 0.30 0 0.85 -2.55 0.65 -4.75 -0.45z"/>
  <path d="M423.60 321.10 c-0.85 -0.25 -0.75 -1.55 0.15 -1.90 0.40 -0.20 0.60 -0.50 0.45 -0.75 -0.15 -0.25 -0.05 -0.45 0.25 -0.45 0.30 0 0.40 -0.35 0.25 -0.75 -0.20 -0.40 -0.05 -0.75 0.30 -0.75 0.30 0 0.40 -0.20 0.25 -0.50 -0.15 -0.25 -0.05 -0.50 0.25 -0.50 0.30 0 0.40 -0.20 0.25 -0.50 -0.15 -0.25 -0.10 -0.50 0.20 -0.50 0.30 0 0.40 -0.35 0.25 -0.75 -0.20 -0.40 0.05 -0.85 0.50 -1.05 0.45 -0.15 0.65 -0.50 0.50 -0.75 -0.15 -0.25 0.15 -0.45 0.65 -0.45 0.75 0 0.80 -0.10 0.15 -0.50 -0.65 -0.40 -0.60 -0.50 0.15 -0.50 0.45 0 0.85 0.05 0.85 0.15 0 0.10 -1.10 2.55 -2.40 5.40 -1.45 3.20 -2.65 5.20 -3 5.05z"/>
  <path d="M604.40 316.60 c-1 -2.10 -2.65 -5.25 -3.60 -7 -1 -1.75 -1.80 -3.45 -1.80 -3.75 0 -0.35 0.50 0.30 1.05 1.40 0.60 1.10 1.50 2.55 1.95 3.25 0.50 0.70 1.65 2.85 2.50 4.75 0.90 1.95 1.80 3.90 2.05 4.40 0.25 0.45 0.30 0.85 0.10 0.85 -0.20 -0.05 -1.25 -1.80 -2.25 -3.90z"/>
  <path d="M387.25 314 c4.25 -0.35 8.65 -0.25 9.15 0.20 0.15 0.15 -2.75 0.25 -6.45 0.25 -6.25 -0.10 -6.45 -0.10 -2.70 -0.45z"/>
  <path d="M406.05 312.75 c0 -0.25 0.35 -1.30 0.70 -2.25 0.45 -1.15 0.70 -1.40 0.70 -0.75 0 0.55 -0.30 1.55 -0.70 2.25 -0.40 0.70 -0.70 1.05 -0.70 0.75z"/>
  <path d="M519.35 306.75 c-0.75 -0.70 -1.20 -1.25 -0.90 -1.25 0.25 0 1.15 0.55 1.90 1.25 0.75 0.65 1.20 1.20 0.90 1.20 -0.25 0 -1.15 -0.55 -1.90 -1.20z"/>
  <path d="M620.95 305.40 c-0.05 -0.35 -0.05 -0.80 0 -1 0 -0.25 -0.20 -0.40 -0.50 -0.40 -0.25 0 -0.40 -0.20 -0.25 -0.45 0.20 -0.25 0.05 -0.60 -0.20 -0.70 -0.35 -0.20 -0.35 -0.25 0 -0.20 0.30 0.05 1 0.85 1.55 1.75 0.90 1.35 0.95 1.60 0.25 1.60 -0.45 0 -0.85 -0.30 -0.85 -0.60z"/>
  <path d="M409.05 305.25 c0 -0.90 1.40 -3.05 1.45 -2.20 0 0.40 -0.35 1.20 -0.75 1.75 -0.40 0.50 -0.70 0.75 -0.70 0.45z"/>
  <path d="M597.35 304.15 c-0.40 -0.75 -1.80 -2.85 -3.10 -4.55 -1.25 -1.75 -2.20 -3.30 -2.10 -3.40 0.25 -0.25 4.75 5.75 5.80 7.70 0.35 0.65 0.50 1.30 0.40 1.45 -0.15 0.15 -0.60 -0.40 -1 -1.20z"/>
  <path d="M432.50 303.50 c-0.60 -0.40 -0.60 -0.50 0.15 -0.80 1.05 -0.40 1.75 0.10 1.05 0.80 -0.25 0.25 -0.75 0.30 -1.20 0z"/>
  <path d="M433.50 302 c-0.60 -0.40 -0.60 -0.50 0.15 -0.80 1.05 -0.40 1.75 0.10 1.05 0.80 -0.25 0.25 -0.75 0.30 -1.20 0z"/>
  <path d="M411 301.15 c0 -0.25 0.35 -0.90 0.75 -1.45 0.65 -0.90 0.70 -0.90 0.40 0.20 -0.25 1.10 -1.15 2.05 -1.15 1.25z"/>
  <path d="M619.10 301.15 c-0.30 -0.10 -0.50 -0.45 -0.30 -0.70 0.15 -0.25 0 -0.45 -0.30 -0.45 -0.30 0 -0.40 -0.20 -0.25 -0.50 0.15 -0.25 0.05 -0.50 -0.20 -0.50 -0.30 0 -0.55 -0.35 -0.55 -0.75 0 -0.40 -0.25 -0.75 -0.55 -0.75 -0.25 0 -0.40 -0.20 -0.25 -0.45 0.20 -0.25 0.05 -0.60 -0.20 -0.70 -0.35 -0.20 -0.30 -0.25 0 -0.20 0.30 0.10 1.25 1.30 2.05 2.75 0.85 1.40 1.45 2.60 1.35 2.55 -0.10 0 -0.45 -0.15 -0.80 -0.30z"/>
  <path d="M434.50 300.50 c-0.60 -0.40 -0.60 -0.50 0.15 -0.80 1.05 -0.40 1.75 0.10 1.05 0.80 -0.25 0.25 -0.75 0.30 -1.20 0z"/>
  <path d="M414.10 295.30 c0.65 -1 1.35 -1.80 1.55 -1.80 0.45 0 -1.40 2.80 -2.20 3.30 -0.30 0.15 0 -0.50 0.65 -1.50z"/>
  <path d="M437.60 296.65 c-0.50 -0.20 -0.45 -0.45 0.20 -1.20 0.85 -0.95 2.20 -1.30 2.20 -0.55 0 0.75 -1.70 2 -2.40 1.75z"/>
  <path d="M589.75 294 c-0.80 -0.80 -1.30 -1.60 -1.20 -1.75 0.15 -0.15 0.90 0.45 1.70 1.25 0.80 0.80 1.30 1.60 1.20 1.75 -0.15 0.15 -0.90 -0.45 -1.70 -1.25z"/>
  <path d="M440.35 293.55 c-0.25 -1.05 0.45 -2.05 1.50 -2.05 0.90 0 0.80 0.40 -0.30 1.80 -0.85 1.10 -0.95 1.15 -1.20 0.25z"/>
  <path d="M615 294 c-0.40 -0.25 -0.50 -0.50 -0.25 -0.50 0.30 0 0.15 -0.25 -0.25 -0.50 -0.45 -0.30 -0.50 -0.50 -0.15 -0.50 0.35 0 0.85 0.45 1.15 1 0.60 1.15 0.55 1.20 -0.50 0.50z"/>
  <path d="M586.25 290 c-0.80 -0.80 -1.30 -1.60 -1.20 -1.75 0.15 -0.15 0.90 0.45 1.70 1.25 0.80 0.80 1.30 1.60 1.20 1.75 -0.15 0.15 -0.90 -0.45 -1.70 -1.25z"/>
  <path d="M443.60 289.65 c-0.50 -0.20 -0.40 -0.55 0.45 -1.45 1.10 -1.15 2.45 -1.60 2.45 -0.80 0 0.75 -2.25 2.50 -2.90 2.25z"/>
  <path d="M582.55 286.45 c-0.65 -0.55 -1.10 -1.10 -0.95 -1.25 0.15 -0.10 0.80 0.20 1.45 0.75 0.65 0.55 1.10 1.10 0.95 1.20 -0.15 0.15 -0.80 -0.15 -1.45 -0.70z"/>
  <path d="M447.15 286.15 c-0.50 -0.20 -0.45 -0.40 0.05 -0.95 0.80 -0.80 1.80 -0.95 1.80 -0.25 0 0.70 -1.20 1.45 -1.85 1.20z"/>
  <path d="M607.10 283.40 c-0.35 -0.35 -0.60 -0.85 -0.60 -1.20 0 -0.30 -0.35 -0.75 -0.80 -0.90 -0.45 -0.20 -0.70 -0.45 -0.50 -0.65 0.35 -0.35 2.20 1.20 2.85 2.45 0.55 1 -0.05 1.20 -0.95 0.30z"/>
  <path d="M578 282.25 c-0.35 -0.45 -0.55 -0.90 -0.40 -1 0.15 -0.15 0.55 0.05 0.90 0.50 0.35 0.45 0.55 0.90 0.40 1 -0.15 0.15 -0.55 -0.05 -0.90 -0.50z"/>
  <path d="M464.30 272.65 c-0.35 -0.90 0.45 -1.65 1.85 -1.65 1.20 0 1.05 0.75 -0.35 1.65 -1.10 0.75 -1.25 0.75 -1.50 0z"/>
  <path d="M476.60 266.40 c0.25 -0.75 1.40 -1.15 1.40 -0.50 0 0.25 -0.35 0.65 -0.80 0.80 -0.50 0.20 -0.70 0.05 -0.60 -0.30z"/>
  <path d="M532.15 260.65 c-1.25 -0.25 -1.60 -1.15 -0.45 -1.15 1.45 0 3.80 0.65 3.80 1.05 0 0.45 -1.35 0.50 -3.35 0.10z"/>
  <path d="M525.75 259.50 c-0.80 -0.20 -2.55 -0.40 -3.85 -0.45 -1.35 0 -2.40 -0.25 -2.40 -0.55 0 -0.80 2.30 -1.15 3.45 -0.50 0.60 0.30 1.30 0.40 1.55 0.25 0.55 -0.35 4.50 0.85 4.50 1.35 0 0.45 -1.20 0.45 -3.25 -0.10z"/>
  <path d="M507 258.55 c0 -0.50 8.20 -1.05 8.40 -0.55 0.10 0.20 0.80 0.15 1.60 -0.15 1.55 -0.60 2.35 -0.30 1.75 0.60 -0.40 0.65 -11.75 0.75 -11.75 0.10z"/>
 </g>
 <g fill="#3c98ff">
  <path d="M590.50 513 c0 -1.65 1.20 -2.50 3.45 -2.50 1.65 0 2.05 0.15 2.05 0.95 0 0.65 -0.60 1.10 -2.10 1.50 -1.20 0.35 -2.45 0.75 -2.75 0.85 -0.40 0.20 -0.65 -0.15 -0.65 -0.80z"/>
  <path d="M721.95 499.60 c0.25 -0.45 0.95 -1.30 1.50 -1.80 1.05 -0.95 1.05 -0.95 1.05 0.85 0 1.70 -0.10 1.85 -1.50 1.85 -1.30 0 -1.45 -0.15 -1.05 -0.90z"/>
  <path d="M459.30 482.95 c-0.60 -3.05 -0.10 -7.50 2.45 -21.20 0.75 -3.85 1.75 -6.15 1.75 -3.90 0 1.50 1.30 1.65 4.50 0.50 2.65 -0.95 4.80 -2.35 3.65 -2.35 -0.30 0 -0.65 -0.45 -0.80 -0.95 -0.15 -0.60 -0.75 -1.05 -1.65 -1.15 -5.30 -0.70 17.30 -0.95 71.80 -0.80 61.30 0.15 62.80 0.15 64.20 1.15 1.65 1.10 2.80 3.50 2.80 5.90 0 1.80 -3.15 17.95 -4.05 20.70 -0.25 0.85 -0.85 1.70 -1.25 1.85 -1.10 0.45 -4.20 0.35 -4.20 -0.05 0 -0.25 -1.55 -0.35 -3.50 -0.25 -2 0.10 -3.50 0.40 -3.50 0.70 0 0.85 -5 0.05 -6.05 -0.90 -0.70 -0.65 -2.05 -0.85 -5.30 -0.95 -46.90 -1.25 -55.15 -1.60 -55.90 -2.30 -0.75 -0.70 -3.55 -0.50 -4.25 0.30 -0.80 1 -4.95 1 -6.35 0 -0.60 -0.40 -2.45 -0.90 -4.05 -1.05 -2.45 -0.25 -3.40 -0.15 -5.20 0.70 -1.65 0.80 -3.65 1.10 -8.65 1.40 -6.30 0.35 -6.50 0.40 -7.70 1.75 -1 1.15 -1.70 1.45 -3.35 1.45 -1.40 0 -2.20 -0.25 -2.40 -0.75 -0.20 -0.60 -1.20 -0.75 -4.30 -0.75 -3.55 0 -4 0.10 -4 0.95 0 0.70 -0.50 1 -1.85 1.25 -2.90 0.45 -6.55 0.35 -6.90 -0.20 -0.20 -0.35 -0.60 -0.35 -1.25 0 -0.50 0.25 -1.70 0.50 -2.65 0.50 -1.55 0 -1.75 -0.20 -2.05 -1.55z m146.70 -24.65 c0 -1.10 -1.75 -3 -2.40 -2.60 -0.90 0.55 -0.70 2.20 0.30 2.75 1.20 0.75 2.10 0.65 2.10 -0.15z m-115 -1.55 c0 -0.60 -0.65 -0.75 -2.75 -0.75 -1.85 0 -2.75 -0.20 -2.75 -0.60 0 -0.50 -0.10 -0.50 -0.40 -0.05 -0.20 0.30 -1.25 0.65 -2.35 0.80 -1.75 0.15 -1.65 0.20 0.75 0.30 1.50 0.05 3.65 0.30 4.75 0.50 1.10 0.25 2.15 0.45 2.40 0.50 0.20 0 0.35 -0.30 0.35 -0.70z m-14 -0.25 c0 -0.25 -0.75 -0.50 -1.60 -0.50 -1.25 0 -1.45 0.15 -0.90 0.50 1 0.65 2.50 0.65 2.50 0z"/>
  <path d="M446.75 469 c-0.15 -0.25 -0.95 -0.50 -1.70 -0.50 -1.45 0 -2.20 -0.95 -2.75 -3.60 -0.20 -0.95 -0.65 -1.40 -1.25 -1.40 -0.55 0 -1.85 -0.85 -2.90 -1.85 l-1.90 -1.85 0 -20.65 c0 -13.90 0.15 -20.75 0.55 -21.15 0.35 -0.35 0.45 0.35 0.35 2.35 -0.10 1.60 0.10 3.90 0.50 5.15 0.60 2.05 0.80 2.25 2.15 2.10 0.80 -0.10 2.60 -0.15 4.05 -0.15 1.40 0.05 2.70 -0.15 2.90 -0.40 0.15 -0.30 1.35 -0.65 2.65 -0.80 2.75 -0.35 6.95 -1.05 11.85 -2 5.20 -1.05 10.70 -1.75 18.30 -2.40 4.60 -0.40 7.10 -0.85 7.70 -1.35 0.65 -0.55 2.20 -0.75 5.85 -0.75 2.70 0 4.90 -0.15 4.90 -0.35 0 -0.25 0.25 -0.40 0.50 -0.40 0.30 0 0.50 0.55 0.50 1.25 0 0.85 0.20 1.15 0.70 0.95 0.60 -0.20 0.60 -0.60 0 -2.60 -0.90 -3 -1.90 -4.45 -3.85 -5.60 -1.05 -0.65 -1.30 -1 -0.75 -1 2.80 0 5.05 2.65 6.85 8.05 0.60 1.80 1.65 4.05 2.35 5 1.20 1.70 3.85 3.45 5.10 3.45 0.45 0 0.60 0.55 0.50 1.90 l-0.15 1.85 -4.25 1.10 c-2.35 0.55 -5.40 1.10 -6.85 1.10 -3.50 0.05 -7.55 0.95 -9.40 2.10 -1.30 0.75 -2.60 0.90 -8.40 0.85 -8.35 0 -8.85 0.25 -8.85 4.40 l0 2.65 -2.35 0.30 c-1.35 0.15 -3.50 0.65 -4.80 1.05 -1.65 0.55 -3.20 0.70 -4.80 0.50 -2.40 -0.30 -2.40 -0.30 -2.75 1.25 -0.15 0.85 -0.30 2.25 -0.30 3.05 0 0.80 -0.40 2.25 -0.95 3.30 -0.50 1 -1.40 4.45 -2 7.60 -0.60 3.15 -1.20 6.25 -1.35 6.90 -0.20 0.95 -0.50 1.10 -2.95 1.10 -1.45 0 -2.85 -0.20 -3 -0.50z"/>
  <path d="M465.20 454.80 c0.55 -0.45 1.35 -0.80 1.75 -0.75 0.70 0 0.70 0.05 0.05 0.30 -0.40 0.15 -1.20 0.50 -1.75 0.75 -1 0.45 -1 0.45 -0.05 -0.30z"/>
  <path d="M272 438.65 c0 -0.50 0.55 -2.45 1.20 -4.40 4.05 -12.10 10.55 -22.50 19.85 -31.60 6.20 -6.05 11.45 -9.95 18.25 -13.40 l5.60 -2.80 0.85 -4.85 c1 -5.75 3.05 -13.85 3.80 -15 0.40 -0.70 0.45 -0.60 0.25 0.40 -2.30 10.65 -2.30 10.55 0.55 10.25 2.30 -0.20 3.65 -0.70 3.65 -1.30 0 -0.25 0.35 -0.45 0.75 -0.45 0.40 0 0.75 -0.25 0.75 -0.55 0 -0.40 1.10 -0.50 3.50 -0.35 2.70 0.20 3.70 0.50 4.40 1.30 l0.90 1 1 -1.05 c0.55 -0.60 1.75 -3.10 2.70 -5.60 0.90 -2.45 2.40 -5.60 3.30 -7 3.90 -5.90 5.35 -7.75 6 -7.75 0.40 0 0.65 -0.15 0.65 -0.35 -0.20 -1.10 0.15 -1.55 1.30 -1.75 0.70 -0.15 1.25 -0.20 1.25 -0.10 0 0.10 -1.45 2.15 -3.25 4.55 -4.75 6.35 -7.95 13.10 -9.85 20.65 -1.45 5.65 -1.60 7 -1.60 14.35 -0.05 6.15 -0.20 8.15 -0.65 8.15 -0.35 0 -0.65 0.30 -0.65 0.65 0 0.35 -1.80 1.05 -4.55 1.75 -11.65 2.85 -22.65 10.35 -30.50 20.75 -1.70 2.25 -3.25 4.20 -3.50 4.25 -0.25 0.10 -0.45 0.50 -0.45 0.90 0 0.40 -0.20 0.70 -0.50 0.70 -0.25 0 -0.50 0.30 -0.50 0.65 0 0.30 -0.60 2.25 -1.35 4.25 -1.35 3.60 -1.40 3.60 -3.25 3.60 -1.35 0 -2.05 -0.30 -2.60 -1.10 -0.90 -1.25 -1.05 -4.65 -0.30 -5.15 0.30 -0.15 0.50 -0.60 0.50 -0.95 0 -0.50 -1.15 -0.75 -3.85 -0.90 -4.50 -0.30 -5.15 -0.15 -5.15 1.15 0 0.65 -0.35 0.95 -1.20 0.95 -1.05 0 -1.30 0.30 -1.55 2.15 -0.45 2.80 -2.25 4.85 -4.25 4.85 -1.10 0 -1.50 -0.25 -1.50 -0.85z"/>
  <path d="M575.90 434.70 c-1.15 -0.60 -1.40 -1.05 -1.40 -2.70 0 -2.55 1.15 -3.20 5.05 -2.90 4.25 0.30 6.30 2.55 5.15 5.60 -0.40 1.10 -6.85 1.10 -8.80 0z"/>
  <path d="M745.15 431.75 c-0.35 -0.40 -0.65 -1.40 -0.65 -2.25 0 -1 -0.25 -1.50 -0.75 -1.50 -0.40 0 -0.85 -0.55 -1.05 -1.25 -0.15 -0.70 -0.65 -1.25 -1.15 -1.25 -1.25 0 -2.05 -1 -2.05 -2.60 0 -0.75 -0.20 -1.40 -0.50 -1.40 -0.25 0 -0.50 -0.30 -0.50 -0.70 0 -0.95 -3.05 -2.80 -4.65 -2.80 -0.70 0 -1.35 -0.30 -1.50 -0.60 -0.15 -0.50 -0.40 -0.50 -1.15 0 -0.55 0.35 -1.35 0.75 -1.80 0.90 -0.50 0.20 -0.90 0.65 -0.90 1 0 0.50 -0.80 0.70 -3 0.70 -2.35 0 -3 -0.15 -3 -0.75 0 -0.40 -0.35 -0.75 -0.80 -0.75 -0.75 0 -2.20 -1.15 -2.20 -1.70 0 -0.45 -1.70 -2.30 -2.10 -2.30 -0.70 0 -3 -2.25 -3.45 -3.35 -0.30 -0.80 -0.85 -1.15 -1.75 -1.15 -0.75 0 -3.10 -0.90 -5.25 -2 -6.70 -3.45 -14.45 -5.70 -21.45 -6.25 -2.05 -0.15 -4.40 -0.30 -5.25 -0.40 l-1.50 -0.10 -0.35 -4.60 c-1.70 -22.20 -17.50 -41.60 -38 -46.60 -2.35 -0.55 -5.45 -1.05 -6.85 -1.05 -1.65 0 -3.10 -0.35 -4.15 -1 l-1.65 -1 2.75 0 c6.15 0.05 13.50 1.65 17.60 3.80 0.90 0.50 2.65 0.95 3.90 0.95 1.70 0.05 2.60 0.40 3.55 1.35 0.70 0.70 1.20 1.45 1.10 1.70 -0.15 0.45 1.40 1.90 7.35 6.95 1.20 1 1.45 1.10 0.75 0.30 -0.75 -0.85 -1 -1.90 -1 -4.20 0 -1.95 -0.25 -3.25 -0.60 -3.50 -0.35 -0.20 -0.65 -0.60 -0.65 -0.85 0 -0.70 1.35 -0.60 1.70 0.15 0.25 0.50 0.35 0.50 0.60 0 0.15 -0.35 0.60 -0.65 1 -0.65 0.40 0 1.30 -0.55 2 -1.25 1.65 -1.65 3.50 -2.10 4.65 -1.05 0.50 0.45 1.50 0.80 2.20 0.80 1.15 0 1.35 -0.20 1.35 -1.55 0 -1.10 -0.45 -2 -1.60 -3.10 -0.90 -0.80 -1.60 -1.70 -1.50 -1.95 0.05 -0.25 -0.55 -0.70 -1.40 -0.95 -0.80 -0.30 -1.40 -0.70 -1.25 -0.95 0.10 -0.20 -0.35 -0.60 -1 -0.90 -0.70 -0.35 -1.25 -0.80 -1.25 -1.10 0 -0.25 -0.45 -0.50 -1 -0.50 -0.55 0 -1.15 -0.35 -1.30 -0.75 -0.20 -0.40 -0.60 -0.75 -1 -0.75 -0.40 0 -0.70 -0.20 -0.70 -0.40 0 -0.25 -0.80 -0.70 -1.75 -1.10 -0.95 -0.40 -1.75 -0.85 -1.75 -1.10 0 -0.20 -0.45 -0.40 -1 -0.40 -0.55 0 -1 -0.20 -1 -0.50 0 -0.25 -0.45 -0.50 -1 -0.50 -0.55 0 -1 -0.15 -1 -0.40 0 -0.35 -1.15 -0.90 -5.15 -2.35 -1.30 -0.50 -2.30 -0.95 -2.20 -1.05 0.40 -0.40 7 2.25 11.70 4.75 11.25 5.95 20.45 14.70 27.30 26 3 5.05 4.75 9.15 6.60 15.75 1.25 4.30 1.55 4.85 2.70 5.10 8.95 1.85 18.20 5.90 26.20 11.55 5.15 3.60 14.20 12.70 17.95 17.90 3.25 4.65 6.90 10.90 6.90 11.95 0 0.40 0.20 0.80 0.45 0.90 0.75 0.30 2.30 4.60 2.15 6.05 -0.15 1.30 -0.30 1.35 -2.75 1.35 -1.60 -0.05 -2.85 -0.30 -3.20 -0.75z"/>
  <path d="M382.60 413.25 c-2.75 -1.20 -4.65 -2.80 -6.15 -5.15 -1.25 -1.95 -1.45 -2.80 -1.45 -5.75 0 -1.85 0.25 -3.90 0.55 -4.50 0.65 -1.25 4.45 -5.35 5 -5.35 0.15 0 -0.65 0.95 -1.80 2.15 -2.25 2.25 -3.55 5.50 -3.05 7.60 0.15 0.65 0.95 1.85 1.80 2.75 0.80 0.90 1.50 1.80 1.50 2 0 0.25 0.65 0.55 1.40 0.75 0.75 0.15 1.70 0.75 2.10 1.25 0.55 0.80 1.30 1 3.30 1 3.10 0 4.20 -0.35 4.20 -1.30 0 -0.85 0.60 -0.90 1.35 -0.15 1.05 1.05 2.95 -1.05 3.90 -4.40 0.55 -1.85 1.20 -3.15 1.60 -3.15 1.75 0 -0.15 6.60 -2.70 9.25 -3.35 3.45 -7.85 4.60 -11.55 3z"/>
  <path d="M632.25 412.95 c-3 -1.20 -4.90 -3.25 -6.25 -6.85 -1.85 -4.85 -0.90 -8.75 2.90 -12.20 5.50 -4.95 14.40 -3.15 17.80 3.70 2.30 4.60 1.50 9.20 -2.25 13 -3.50 3.50 -7.40 4.25 -12.20 2.35z m-0.95 -8.15 c0.15 -0.65 0.20 -1.75 0.10 -2.35 -0.10 -1 -0.50 -1.20 -2.25 -1.35 -1.90 -0.15 -2.15 -0.05 -2.15 0.85 0 0.60 0.25 1.05 0.55 1.05 0.30 0 0.45 0.40 0.35 0.90 -0.15 0.80 1.20 1.95 2.45 2.05 0.35 0.05 0.75 -0.50 0.95 -1.15z m0.40 -6.55 c1.25 -0.95 2.25 -1.25 4.25 -1.25 1.45 0 3.05 -0.25 3.55 -0.50 0.70 -0.35 1.25 -0.35 1.90 0.05 0.70 0.45 1.20 0.45 1.90 0.05 0.85 -0.50 0.90 -0.55 0.05 -0.60 -0.50 0 -1.10 -0.50 -1.35 -1.10 -0.25 -0.65 -0.45 -0.85 -0.45 -0.50 -0.05 0.30 -0.60 0.60 -1.30 0.60 -0.70 0 -1.25 0.25 -1.25 0.50 0 0.70 -3.35 0.65 -3.60 -0.05 -0.30 -0.85 -5.40 -0.80 -5.95 0.10 -0.60 1 -0.55 3.95 0.10 3.95 0.30 0 1.25 -0.55 2.15 -1.25z"/>
  <path d="M511.60 403 c-0.60 -1 -0.85 -6.80 -0.30 -8.15 0.40 -1.15 2.70 -0.40 3.30 1.10 0.70 1.80 0.25 5.15 -0.90 6.70 -1.15 1.60 -1.30 1.60 -2.10 0.35z"/>
  <path d="M394.85 397.15 c-0.20 -0.15 -0.35 -0.65 -0.35 -1.05 0 -0.40 -0.40 -1.05 -0.85 -1.40 -0.50 -0.35 -0.65 -0.70 -0.30 -0.70 0.55 0 2.65 2.55 2.65 3.20 0 0.40 -0.75 0.40 -1.15 -0.05z"/>
  <path d="M404.50 392.50 c0 -1.40 0.10 -1.50 2 -1.50 1.95 0 2 -0.05 2 -1.70 0 -1.85 1.15 -2.70 2.30 -1.75 1.15 0.95 0.80 2.15 -1.20 4.10 -1.40 1.35 -2.15 1.75 -3 1.55 -0.65 -0.20 -1.10 -0.10 -1.10 0.25 0 0.30 -0.20 0.55 -0.50 0.55 -0.25 0 -0.50 -0.65 -0.50 -1.50z"/>
  <path d="M616.50 392.55 c-0.95 -0.80 -1.75 -1.75 -1.75 -2.05 0 -0.30 -0.30 -0.75 -0.70 -0.95 -0.60 -0.40 -0.60 -0.60 0.10 -1.25 1.15 -1.20 1.95 -1 4.05 0.95 1.45 1.30 1.85 2 1.70 3.10 -0.20 1.85 -1.30 1.95 -3.40 0.20z"/>
  <path d="M512.20 387.10 c-1.30 -0.20 -1.80 -2.15 -1.35 -5.35 0.40 -3.05 1.25 -3.65 2.60 -1.95 0.60 0.75 1.05 1.50 1.05 1.70 0 0.70 -1.45 0.95 -1.70 0.35 -0.10 -0.35 -0.25 0 -0.25 0.80 -0.05 1.05 0.20 1.35 0.95 1.35 0.70 0 1 0.35 1 1.20 0 1.45 -0.90 2.15 -2.30 1.90z"/>
  <path d="M416.15 384.20 c-0.40 -1.10 0.85 -3.10 3.05 -4.90 l1.80 -1.45 1.25 1.15 c0.70 0.65 1.25 1.35 1.25 1.50 0 1.20 -4.50 4.50 -6.15 4.50 -0.50 0 -1 -0.35 -1.20 -0.80z"/>
  <path d="M604.25 383.90 c-3.15 -1.70 -4.20 -4.35 -2.25 -5.40 0.85 -0.45 1.35 -0.30 3.05 1 2.25 1.85 3.05 3.10 2.65 4.20 -0.35 0.90 -2 1 -3.45 0.20z"/>
  <path d="M428.50 375.25 c-0.55 -0.65 -0.50 -1.05 0.05 -2.10 0.90 -1.70 4.10 -3.75 5.50 -3.55 1.35 0.20 1.90 1.40 0.60 1.40 -0.75 0 -0.75 0.10 -0.15 0.50 0.60 0.35 0.55 0.65 -0.50 1.75 -1.25 1.35 -3.50 2.75 -4.40 2.75 -0.25 0 -0.75 -0.35 -1.10 -0.75z"/>
  <path d="M592.75 375.40 c-1.75 -0.95 -4.25 -3.55 -4.25 -4.45 0 -1.60 1.30 -2.10 3.20 -1.20 2.30 1.10 3.25 2.20 2.35 2.70 -0.45 0.30 -0.30 0.50 0.55 0.75 0.95 0.25 1 0.40 0.40 0.80 -0.50 0.30 -0.55 0.50 -0.10 0.50 0.30 0 0.60 0.35 0.60 0.75 0 0.85 -1.30 0.95 -2.75 0.15z"/>
  <path d="M510.80 371.25 c-0.45 -1.60 -0.35 -3.10 0.30 -4.50 1.15 -2.55 3.35 -0.90 3.40 2.50 0 2.45 -0.40 3 -2.10 3 -0.95 0.05 -1.40 -0.25 -1.60 -1z"/>
  <path d="M578.70 364.80 c-2.35 -2.30 -2.65 -3.30 -1.45 -4.30 0.95 -0.75 2.25 -0.30 4.65 1.75 1.65 1.40 2.05 3.10 1 4.15 -1.05 1.05 -1.95 0.70 -4.20 -1.60z"/>
  <path d="M440.35 366.15 c-0.20 -0.15 -0.35 -0.60 -0.35 -0.90 0 -0.80 2.85 -3.65 4.60 -4.55 1.15 -0.60 1.45 -0.60 2.45 0.25 1.10 0.85 1.10 1 0.35 2.15 -0.65 1 -1.15 1.20 -2.35 1 -1.25 -0.15 -1.80 0.05 -2.60 1.10 -1.05 1.35 -1.55 1.55 -2.10 0.95z"/>
  <path d="M322.30 364.50 c0.40 -1.65 5.05 -11.50 5.40 -11.50 0.35 0 -0.20 1.45 -1.80 4.75 -2.95 6.15 -3.90 7.90 -3.60 6.75z"/>
  <path d="M510.50 356.50 c-0.70 -2.45 -0.60 -3.60 0.30 -4.90 1.10 -1.55 2.55 -1.40 3.50 0.45 0.65 1.30 0.70 1.95 0.20 3.85 -0.50 2.15 -0.65 2.35 -2.05 2.35 -1.25 0 -1.55 -0.25 -1.95 -1.75z"/>
  <path d="M452.65 357.20 c-0.75 -2 3.15 -5.90 5.70 -5.60 1.10 0.10 1.45 0.45 1.55 1.45 0.30 2.75 -6.30 6.60 -7.25 4.15z"/>
  <path d="M568.70 357.30 c-0.15 -0.40 -0.55 -0.65 -0.85 -0.55 -1 0.35 -2.40 -1.10 -2.85 -2.95 l-0.40 -1.80 2.10 0.10 c1.65 0.05 2.40 0.40 3.65 1.75 1.30 1.35 1.50 1.90 1.20 2.80 -0.50 1.30 -2.40 1.75 -2.85 0.65z"/>
  <path d="M353.25 351.60 c0.10 -1.35 0.55 -1.90 4.60 -5.35 3.45 -2.95 5.65 -4.05 5.65 -2.75 0 0.25 -1.20 1.35 -2.60 2.45 -1.45 1.05 -3.65 3 -4.90 4.25 -2.40 2.50 -2.85 2.75 -2.75 1.40z"/>
  <path d="M614.35 348.40 c-0.35 -2.55 -0.05 -3.05 0.65 -1.20 0.45 1.25 0.70 1.35 2.60 1.20 1.35 -0.10 2.15 0.05 2.25 0.50 0.15 0.40 -0.05 0.50 -0.60 0.30 -0.45 -0.20 -1 -0.10 -1.20 0.15 -0.15 0.30 -1 0.70 -1.85 0.85 -1.55 0.35 -1.55 0.30 -1.85 -1.80z"/>
  <path d="M556.15 348.70 c-2.05 -1.05 -3.25 -2.40 -3.40 -3.95 -0.15 -0.95 0.10 -1.30 1.05 -1.55 1.75 -0.45 4.50 1.30 4.30 2.70 -0.10 0.65 0.10 1.10 0.50 1.15 0.35 0 0.20 0.20 -0.35 0.45 -0.55 0.25 -0.70 0.45 -0.35 0.45 0.65 0.05 0.90 1.55 0.25 1.55 -0.25 0 -1.10 -0.40 -2 -0.80z"/>
  <path d="M621.75 348.50 c-0.15 -0.25 0.15 -0.50 0.70 -0.50 0.60 0 1.05 0.25 1.05 0.50 0 0.30 -0.30 0.50 -0.70 0.50 -0.40 0 -0.90 -0.20 -1.05 -0.50z"/>
  <path d="M465 347.20 c0 -0.30 0.35 -0.95 0.75 -1.50 0.40 -0.50 0.70 -0.70 0.70 -0.45 0 0.30 -0.30 0.95 -0.70 1.45 -0.40 0.55 -0.75 0.75 -0.75 0.50z"/>
  <path d="M469.15 347.15 c-0.50 -0.15 -0.45 -0.55 0.10 -1.65 0.95 -1.85 0.95 -1.90 -0.35 -2.15 -0.85 -0.15 -0.70 -0.25 0.45 -0.30 1.20 -0.05 1.75 0.25 2.20 1 0.45 0.90 0.35 1.25 -0.60 2.20 -0.65 0.65 -1.50 1.05 -1.80 0.90z"/>
  <path d="M334.50 342.90 c0.95 -1.30 1.80 -2.30 1.90 -2.15 0.25 0.25 -1.60 2.85 -2.70 3.80 -0.45 0.40 -0.10 -0.35 0.80 -1.65z"/>
  <path d="M613.85 344.65 c-0.20 -0.30 -0.45 -1.65 -0.60 -3 l-0.25 -2.40 0.75 2.25 c0.75 2.25 0.85 4.30 0.10 3.15z"/>
  <path d="M511 342.20 c-1.05 -2.70 -1.10 -3.80 -0.25 -5.95 0.55 -1.50 1.15 -2.25 1.70 -2.25 1.05 0 2.45 2.60 1.60 2.90 -0.75 0.25 -0.70 1.95 0.10 2.25 0.35 0.15 0.25 0.30 -0.25 0.30 -1.05 0.05 -1.20 0.85 -0.25 1.20 0.35 0.15 0.25 0.30 -0.25 0.30 -0.95 0.05 -1.30 1.05 -0.35 1.05 0.85 0 0.25 1.15 -0.75 1.30 -0.50 0.05 -1.05 -0.35 -1.30 -1.10z"/>
  <path d="M364.10 342.60 c-0.50 -0.35 -0.40 -0.60 0.25 -1.20 1.05 -0.95 8.10 -4.40 8.95 -4.40 0.35 0 0.70 -0.25 0.80 -0.50 0.20 -0.60 5.40 -2.05 6 -1.70 0.90 0.55 0.30 1.05 -2.45 1.95 -3.20 1.05 -7.85 3.25 -10.75 5.05 -2.15 1.35 -1.95 1.30 -2.80 0.80z"/>
  <path d="M542.25 339.05 c-2.30 -1.55 -2.95 -3.90 -1.40 -5.10 0.50 -0.35 0.75 -0.50 0.55 -0.25 -0.65 0.75 2.75 3.30 4.40 3.30 0.40 0 0.70 0.25 0.70 0.50 0 0.30 -0.25 0.50 -0.60 0.50 -0.30 0 -0.15 0.30 0.35 0.70 0.90 0.65 0.90 0.70 -0.35 0.45 -0.90 -0.15 -1.35 0 -1.50 0.50 -0.10 0.65 -0.55 0.50 -2.15 -0.60z"/>
  <path d="M339.75 337 c1.65 -1.65 3.10 -3 3.20 -3 0.15 0 -1.05 1.35 -2.70 3 -1.65 1.65 -3.10 3 -3.20 3 -0.15 0 1.05 -1.35 2.70 -3z"/>
  <path d="M480.10 339.25 c-0.50 -0.60 -0.35 -0.85 0.85 -1.50 3.05 -1.55 4.20 -0.35 1.25 1.35 -1.25 0.70 -1.55 0.70 -2.10 0.15z"/>
  <path d="M417.75 338 c-0.80 -0.90 -0.85 -1.15 -0.25 -1.50 1.15 -0.75 2 -0.60 2 0.40 0 1.75 -0.75 2.20 -1.75 1.10z"/>
  <path d="M612.25 337.50 c-0.20 -0.85 -0.25 -1.70 -0.10 -1.80 0.10 -0.15 0.35 0.50 0.55 1.35 0.40 2.10 0 2.50 -0.45 0.45z"/>
  <path d="M413.80 336.55 c-0.80 -0.30 -0.85 -0.45 -0.30 -0.80 0.40 -0.25 0.75 -0.20 0.90 0.15 0.10 0.30 0.50 0.40 0.90 0.25 0.40 -0.15 0.70 0 0.70 0.30 0 0.60 -0.80 0.65 -2.20 0.10z"/>
  <path d="M390.50 333.50 c0 -0.25 0.35 -0.50 0.75 -0.50 0.40 0 0.75 0.25 0.75 0.50 0 0.30 -0.35 0.50 -0.75 0.50 -0.40 0 -0.75 -0.20 -0.75 -0.50z"/>
  <path d="M489.70 331.25 c-0.35 -0.90 0.20 -1.85 0.85 -1.50 0.95 0.60 2.50 -0.30 2.35 -1.40 -0.10 -0.75 0.20 -1.15 1.10 -1.35 1.65 -0.45 2.90 -0.05 1.90 0.55 -0.55 0.35 -0.50 0.55 0.10 0.95 0.65 0.40 0.65 0.50 -0.10 0.50 -0.60 0 -0.75 0.25 -0.55 0.80 0.20 0.60 0 0.70 -1.05 0.40 -1.10 -0.25 -1.40 -0.15 -1.65 0.75 -0.30 1.25 -2.50 1.50 -2.95 0.30z"/>
  <path d="M530.10 330.70 c-1.40 -0.95 -1.45 -2.20 -0.10 -1.85 0.55 0.15 1 0 1 -0.30 0 -0.70 -1.25 -0.70 -2.50 -0.05 -0.70 0.40 -0.95 0.25 -1.15 -0.60 -0.20 -0.60 -0.20 -1.25 -0.05 -1.50 0.50 -0.75 2.70 -0.40 3.70 0.60 0.55 0.55 1.20 1 1.50 1 0.25 0 0.35 0.35 0.20 0.75 -0.20 0.45 0 0.75 0.50 0.75 0.45 0 0.80 0.25 0.80 0.50 0 0.30 -0.40 0.50 -0.90 0.50 -0.50 0 -1.10 0.20 -1.40 0.50 -0.30 0.30 -0.85 0.25 -1.60 -0.30z"/>
  <path d="M627.50 320.55 c0 -0.55 -0.25 -1.10 -0.50 -1.20 -0.30 -0.15 -0.25 -0.20 0.05 -0.15 0.75 0.15 1.60 2.30 0.95 2.30 -0.30 0 -0.50 -0.45 -0.50 -0.95z"/>
 </g>
 <g fill="#318dfe">
  <path d="M335.50 518.95 c0 -1.20 0.15 -1.50 0.80 -1.25 0.45 0.15 1.20 0.30 1.75 0.30 0.70 0 0.95 0.35 0.95 1.25 0 1.10 -0.20 1.25 -1.75 1.25 -1.60 0 -1.75 -0.10 -1.75 -1.55z"/>
  <path d="M453.85 518.90 c-0.95 -0.35 -1.30 -0.75 -1.15 -1.30 0.10 -0.50 0.35 -1.70 0.55 -2.70 0.50 -3 1.55 -2.35 1.95 1.15 0.20 1.70 0.30 3.10 0.20 3.20 -0.10 0.05 -0.80 -0.10 -1.55 -0.35z"/>
  <path d="M587.50 513.85 c0 -1.55 2.85 -3.85 4.85 -3.85 0.90 0 1.65 -0.20 1.65 -0.50 0 -0.25 1 -0.50 2.25 -0.50 1.85 0 2.25 0.15 2.25 0.95 0 1.35 -1.35 2.25 -3.40 2.25 -1 0 -2.20 0.35 -2.70 0.75 -0.50 0.40 -1.80 1.05 -2.90 1.35 -1.90 0.55 -2 0.55 -2 -0.45z"/>
  <path d="M438.75 513.30 c-2.15 -0.80 -2.75 -1.25 -2.75 -2.10 0 -0.45 0.55 -0.70 1.75 -0.70 0.95 0 1.75 0.25 1.75 0.50 0 0.30 0.35 0.50 0.75 0.50 0.45 0 0.75 0.45 0.75 1.25 0 1.35 -0.05 1.40 -2.25 0.55z"/>
  <path d="M312.10 511 c-0.70 -0.70 -1.10 -1.65 -1.10 -2.75 0 -2.20 0.75 -2.25 3.75 -0.15 1.55 1.10 2.25 1.95 2.25 2.75 0 1 -0.25 1.15 -1.90 1.15 -1.25 0 -2.30 -0.35 -3 -1z"/>
  <path d="M443 510.25 c0 -1.60 0.10 -1.75 1.50 -1.75 1.40 0 1.50 0.15 1.50 1.75 0 1.60 -0.10 1.75 -1.50 1.75 -1.40 0 -1.50 -0.15 -1.50 -1.75z"/>
  <path d="M455.65 507.40 c-1.10 -1.25 -1.10 -0.90 0.80 -12.15 0.30 -1.65 1 -6.05 1.55 -9.75 1.75 -11.50 3.10 -19.75 3.30 -19.95 0.40 -0.45 0.15 2.85 -0.55 7.10 -0.55 3.35 -0.60 5.05 -0.20 7.25 0.30 1.55 0.60 2.90 0.70 3 0.05 0.10 0.95 -0.25 1.90 -0.70 1.70 -0.80 1.85 -0.80 3.10 0 1.85 1.20 6.25 0.70 6.25 -0.75 0 -1.10 -0.30 -1 5.95 -1.15 4 -0.05 4.80 0.10 5.25 0.80 0.75 1.25 1.40 1.10 2.85 -0.55 1.20 -1.35 1.40 -1.40 7.70 -1.75 5 -0.30 7 -0.60 8.65 -1.40 1.85 -0.90 2.85 -1 6.60 -0.80 2.90 0.20 4.80 0.55 5.55 1.10 1.55 1.05 2.20 1 3.95 -0.25 1.20 -0.90 1.80 -1 3.85 -0.70 1.30 0.20 2.65 0.55 2.90 0.75 0.65 0.55 11.30 1 27.75 1.25 6.75 0.10 14.85 0.35 18 0.55 3.15 0.20 7.70 0.40 10.05 0.40 3.25 0.05 4.55 0.25 5.25 0.85 1.25 1.05 3.10 1.50 3.35 0.75 0.10 -0.35 1.30 -0.50 3.25 -0.40 1.65 0.05 3.20 -0.10 3.35 -0.40 0.45 -0.75 2.05 -0.60 2.95 0.25 0.95 0.95 2.25 0.45 2.60 -1.05 0.15 -0.65 0.60 -1.20 1 -1.20 0.40 0 0.70 -0.20 0.70 -0.50 0 -0.25 -0.25 -0.50 -0.50 -0.50 -0.80 0 -0.05 -3.65 0.90 -4.35 0.50 -0.40 0.55 -0.65 0.20 -0.65 -0.60 0 -0.55 -0.80 0.25 -3.60 0.25 -0.95 1.65 -1.25 1.65 -0.35 0 0.25 -1.40 7.30 -3.05 15.60 -1.70 8.30 -3.15 15.55 -3.25 16.10 -0.05 0.55 -0.40 2.65 -0.75 4.70 l-0.65 3.65 -2.20 -0.30 c-1.25 -0.15 -3 -0.30 -3.90 -0.30 -1.60 0 -1.70 -0.10 -1.70 -1.70 0 -0.95 0.30 -1.80 0.60 -1.90 0.35 -0.15 -7.80 -0.50 -18.10 -0.85 -11.90 -0.40 -20.15 -0.90 -22.60 -1.35 -4 -0.80 -5.60 -0.50 -6.55 1.10 -0.70 1.15 -4.80 0.65 -10.10 -1.25 -2.45 -0.90 -35.65 -0.35 -42.75 0.65 -13 1.90 -14.05 2 -14.95 1.45 -0.55 -0.35 -1.20 -0.40 -1.60 -0.15 -0.35 0.25 -2.70 0.60 -5.15 0.80 -3.85 0.30 -4.65 0.50 -5.75 1.60 -2.30 2.30 -6.70 2.80 -8.40 1z"/>
  <path d="M303.65 504.15 c-0.40 -0.10 -0.65 -1.10 -0.65 -2.20 0 -1.70 0.15 -1.95 1.15 -1.95 1.50 0 4 2.55 3.55 3.65 -0.30 0.85 -2.60 1.10 -4.05 0.50z"/>
  <path d="M441.35 502.15 c-0.95 -1.30 -2.25 -2.75 -2.80 -3.15 -0.60 -0.40 -1.05 -1.10 -1.05 -1.55 0 -0.50 -0.30 -0.95 -0.60 -1.05 -0.50 -0.20 -0.65 -6.75 -0.75 -30.20 -0.05 -17.55 0.10 -29.10 0.35 -27.95 0.25 1.10 0.45 3.55 0.45 5.45 0.05 1.90 0.30 6.05 0.65 9.25 0.60 5.55 0.65 5.85 2.30 7.40 0.95 0.90 2 1.65 2.45 1.65 1.05 0 2.25 1.35 2.10 2.35 -0.20 1.65 0.60 2.65 2.05 2.65 0.80 0 1.60 0.25 1.75 0.50 0.15 0.30 0.85 0.50 1.50 0.50 1.30 0 1.40 -0.15 2.25 -5.10 0.35 -1.90 0.85 -3.40 1.20 -3.40 0.30 0 0.30 -0.20 -0.15 -0.45 -0.50 -0.30 -0.55 -0.65 -0.10 -1.45 0.30 -0.55 0.55 -1.45 0.55 -1.95 0 -0.55 0.40 -1.85 0.95 -2.95 0.50 -1.05 1.05 -3.25 1.20 -4.80 0.15 -1.60 0.60 -3.25 1.05 -3.65 0.80 -0.80 2.80 -1.05 2.80 -0.30 0 0.75 2 1 3.55 0.45 0.80 -0.25 1.45 -0.75 1.45 -1 0 -0.30 0.55 -0.35 1.30 -0.20 0.70 0.20 2 0.20 2.90 0.05 1.55 -0.30 1.65 -0.40 1.70 -2.90 0.15 -3.50 1.60 -4.85 5.25 -4.85 1.45 0 3.40 -0.05 4.35 -0.05 0.95 0 2.70 0.15 3.90 0.35 1.60 0.25 2.45 0.10 3.50 -0.60 1.90 -1.25 6.20 -2.25 10.35 -2.45 4.85 -0.25 10.45 -1.75 10.65 -2.85 0.10 -0.55 -0.15 -0.90 -0.60 -0.90 -0.85 0 -4.50 -3 -4.10 -3.35 0.15 -0.15 1.05 0.35 2.05 1.15 2.60 1.95 5.85 2.15 43.10 2.20 17.70 0 32.65 0.20 33.25 0.45 1.90 0.75 4.40 3.75 5.10 6.10 0.65 2.15 0.35 8.05 -0.45 8.85 -0.20 0.20 -26.80 0.40 -59.15 0.45 -36.75 0.10 -59.75 0.30 -61.20 0.65 -1.30 0.25 -3.45 1.15 -4.75 1.95 -4.75 2.95 -6.50 6.75 -8.15 17.55 -1 6.60 -4.05 24.20 -4.55 26.25 -0.25 1.10 -0.60 3.35 -0.70 5 -0.15 1.65 -0.55 4.15 -0.90 5.50 -0.55 2.40 -0.70 2.50 -2.40 2.65 -1.65 0.15 -2 -0.05 -3.60 -2.25z m141.90 -69 c0.45 -1.20 -1.90 -3.15 -3.75 -3.15 -1.40 0 -3.50 1.25 -3.50 2.10 0 0.75 2.80 1.85 4.80 1.90 1.55 0 2.20 -0.25 2.45 -0.85z"/>
  <path d="M294.85 494.65 c-0.55 -0.15 -1.30 -0.55 -1.75 -0.90 -0.50 -0.40 -1.85 -1.50 -3 -2.45 -1.20 -1 -2.65 -1.80 -3.20 -1.80 -0.50 0 -1.45 -0.25 -2.05 -0.60 -0.65 -0.35 -2.95 -0.55 -5.65 -0.50 l-4.55 0.05 -1.60 -5.10 c-2.10 -6.80 -2.80 -10.35 -3.60 -18.10 -0.95 -9.85 0.60 -21.55 4.25 -32.50 2.25 -6.60 9.60 -20.25 10.95 -20.25 0.25 0 -0.35 1.05 -1.25 2.40 -1.75 2.35 -2.55 4.15 -3.10 6.75 -0.20 0.75 -0.60 1.35 -1 1.35 -0.65 0 -4.30 7.20 -4.30 8.60 0 0.40 -0.35 1.60 -0.75 2.60 -0.40 1 -0.60 1.80 -0.45 1.80 0.20 0 0.05 0.35 -0.30 0.75 -0.35 0.45 -0.50 0.90 -0.35 1.05 0.60 0.65 2.80 -2.65 3.10 -4.65 0.25 -1.85 0.50 -2.15 1.55 -2.15 0.85 0 1.20 -0.25 1.20 -1 0 -1.35 1.55 -1.65 7.05 -1.30 2.95 0.15 4.75 0.50 5.05 0.90 0.60 1 0.45 2.60 -0.40 3.80 -0.70 1.05 -0.70 1.25 0 2.35 0.45 0.70 0.95 1.25 1.10 1.25 0.10 0 0.70 -1.05 1.25 -2.35 1.75 -4.05 2 -4.75 1.45 -4.40 -0.30 0.15 -0.50 -0.05 -0.50 -0.45 0 -0.45 0.25 -0.80 0.50 -0.80 0.30 0 0.50 -0.60 0.50 -1.30 0 -1 0.20 -1.20 0.95 -0.95 0.70 0.20 1.20 -0.15 2.05 -1.50 0.80 -1.30 1.40 -1.75 2.05 -1.60 0.55 0.15 0.95 0.05 0.95 -0.20 0 -0.25 -0.25 -0.45 -0.50 -0.45 -0.35 0 -0.35 -0.35 0.05 -1.05 0.35 -0.70 0.85 -0.95 1.50 -0.80 0.80 0.20 0.95 0.05 0.70 -0.70 -0.25 -0.70 -0.10 -0.95 0.65 -0.95 1.30 0 3.05 -1.90 2.20 -2.45 -0.80 -0.50 2.15 -3.05 3.55 -3.05 0.50 0 0.75 -0.25 0.60 -0.50 -0.15 -0.30 0.20 -0.70 0.85 -0.95 0.65 -0.30 0.95 -0.50 0.75 -0.50 -0.95 -0.10 2.35 -2.55 6.30 -4.75 2.45 -1.35 4.35 -1.70 4.35 -0.80 0 0.30 -0.20 0.50 -0.45 0.50 -0.25 0 -2.20 1.15 -4.35 2.55 -14.40 9.40 -23 22.20 -26.45 39.40 -1.30 6.45 -0.85 18.10 0.95 25 1.70 6.35 3.55 11 6.20 15.50 2.50 4.15 2.40 5.60 -0.35 5.50 -1 -0.05 -2.20 -0.15 -2.70 -0.30z"/>
  <path d="M744.10 491.50 c0.15 -1.90 0.10 -2 -1.20 -2 -0.80 0 -1.40 -0.20 -1.40 -0.50 0 -0.25 -0.55 -0.50 -1.20 -0.50 -0.70 0 -1.35 -0.20 -1.50 -0.45 -0.45 -0.70 -3.20 0.50 -3.45 1.55 -0.20 0.65 -0.75 0.90 -2.05 0.90 l-1.80 0 0 -2.35 c0.05 -2.65 0.25 -3.65 2.45 -10.75 2.50 -8.10 3.30 -16.65 2.30 -24.25 -1.70 -12.70 -5.30 -21.40 -12.80 -30.90 -6.15 -7.80 -14.70 -14.20 -23.05 -17.20 -2.95 -1.05 -10.85 -3.05 -12.15 -3.05 -0.55 0 -0.75 -0.25 -0.55 -0.75 0.15 -0.40 0.05 -0.75 -0.15 -0.75 -0.25 0 -0.55 0.30 -0.65 0.60 -0.15 0.45 -1.25 0.60 -3.70 0.50 -1.90 -0.10 -3.50 -0.25 -3.60 -0.35 -0.10 -0.10 -0.60 -2.70 -1.15 -5.75 -1.95 -11.40 -4.05 -17.20 -8.75 -24.35 -2.05 -3.10 -2.25 -4.10 -0.30 -1.65 1.95 2.50 3.60 5.45 5.35 9.75 0.35 0.85 1 2.30 1.40 3.25 1.15 2.55 2.80 9.20 3.20 13.25 l0.40 3.45 5.60 0.65 c7 0.75 14.95 3.05 21.15 6 2.60 1.25 5.50 2.30 6.50 2.35 1.30 0.05 1.85 0.35 2.30 1.25 0.65 1.30 2.90 3.55 3.55 3.55 0.45 0 2.15 1.80 2.15 2.30 0 0.55 1.45 1.70 2.20 1.70 0.45 0 0.80 0.35 0.80 0.75 0 0.50 0.50 0.75 1.50 0.75 1 0 1.50 -0.25 1.50 -0.75 0 -0.40 0.30 -0.75 0.70 -0.75 0.35 0 0.95 -0.35 1.30 -0.75 0.70 -0.85 5 -1.05 5 -0.25 0 0.30 0.60 0.50 1.30 0.50 1.65 0 4.70 1.85 4.70 2.80 0 0.40 0.25 0.70 0.50 0.70 0.30 0 0.50 0.65 0.50 1.40 0 1.60 0.80 2.60 2.05 2.60 0.45 0 0.95 0.55 1.15 1.20 0.20 0.90 0.55 1.15 1.25 0.95 0.95 -0.25 1.90 -1.65 1.15 -1.65 -0.70 0 -0.50 -2.45 0.25 -2.70 1.20 -0.50 6.20 11.60 8.35 20.20 0.80 3.15 1.80 12.65 1.80 16.95 0 10.55 -2.45 22.55 -5.25 25.85 -1.25 1.40 -1.70 3.95 -0.80 4.30 0.25 0.10 0.15 0.90 -0.20 1.80 -0.60 1.40 -0.90 1.60 -2 1.30 -0.95 -0.25 -1.25 -0.10 -1.25 0.50 0 0.60 -0.50 0.80 -1.80 0.80 -1.80 0 -1.80 0 -1.60 -2z m5.20 -61.70 c-0.20 -0.75 -0.05 -1.30 0.35 -1.45 0.35 -0.20 0.30 -0.30 -0.20 -0.30 -0.45 -0.05 -0.95 -0.40 -1.15 -0.80 -0.45 -1.15 -1.05 -0.90 -1.65 0.80 -0.70 1.85 -0.05 2.90 1.80 2.95 1 0 1.10 -0.20 0.85 -1.20z"/>
  <path d="M359.80 456.70 c-0.65 -1.65 -0.35 -2.30 0.95 -2.10 0.70 0.15 1.25 0.05 1.25 -0.15 0 -0.25 0.55 -0.45 1.25 -0.45 0.95 0 1.15 0.20 0.90 0.90 -0.85 2.35 -3.70 3.55 -4.35 1.80z"/>
  <path d="M487 453.50 c-0.70 -0.20 3.35 -0.40 9 -0.40 5.95 0 9.70 0.15 9 0.40 -1.60 0.50 -16.35 0.55 -18 0z"/>
  <path d="M510.75 453.50 c-0.85 -0.35 -0.80 -0.45 0.50 -0.45 0.85 0 1.95 0.20 2.50 0.45 0.85 0.35 0.80 0.45 -0.50 0.45 -0.80 0 -1.95 -0.20 -2.50 -0.45z"/>
  <path d="M527.75 453.50 c-0.20 -0.30 0.55 -0.50 1.85 -0.50 1.55 0 1.95 0.15 1.40 0.50 -1 0.65 -2.85 0.65 -3.25 0z"/>
  <path d="M520.65 453.15 c0.45 -0.10 1.25 -0.10 1.75 0 0.45 0.15 0.05 0.25 -0.90 0.25 -0.95 0 -1.35 -0.10 -0.85 -0.25z"/>
  <path d="M561.40 453.15 c1.15 -0.10 2.95 -0.10 4 0 1 0.10 0.05 0.20 -2.15 0.20 -2.20 0 -3.05 -0.10 -1.85 -0.20z"/>
  <path d="M655.25 442 l-0.80 -1.50 2 0 c1.55 0 2.05 0.20 2.30 1 0.75 2.45 -2.25 2.90 -3.50 0.50z"/>
  <path d="M369.65 441.25 c-0.35 -0.40 -0.65 -1.50 -0.65 -2.50 0 -1.65 0.10 -1.75 1.75 -1.75 1.65 0 1.75 0.10 1.45 1.40 -0.35 1.65 -1.25 3.60 -1.65 3.60 -0.15 -0.05 -0.60 -0.35 -0.90 -0.75z"/>
  <path d="M652.70 437.80 c-0.55 -1.40 0.05 -2.55 1.30 -2.70 0.95 -0.10 1.50 0.25 2.15 1.35 1.15 2 1.15 2.05 -1.15 2.05 -1.30 0 -2.15 -0.25 -2.30 -0.70z"/>
  <path d="M647.40 428.15 c-3.10 -3.55 -4.45 -8.15 -2.45 -8.15 1.25 0 3.65 2.40 4.80 4.80 1.40 3 -0.40 5.55 -2.35 3.35z"/>
  <path d="M375.35 428.15 c-1.05 -1 0.70 -6.15 2.70 -7.95 1.20 -1.05 2.60 -0.50 2.85 1.20 0.15 1.05 -1.45 4.75 -2.80 6.25 -0.75 0.85 -2.15 1.15 -2.75 0.50z"/>
  <path d="M744.50 419.90 c-0.65 -0.85 -1.25 -1.85 -1.30 -2.20 -0.10 -0.50 -1.15 -2.20 -4.85 -7.55 -0.60 -0.90 -1.60 -1.80 -2.20 -1.95 -0.65 -0.15 -1.15 -0.60 -1.15 -1 0 -0.65 -2 -2.85 -6 -6.50 -1.25 -1.15 -2.75 -2.60 -3.35 -3.25 -1.50 -1.65 -2.50 -2.45 -3.10 -2.45 -0.30 0 -0.70 -0.30 -0.90 -0.60 -0.20 -0.35 -1.40 -1.20 -2.65 -1.85 -1.25 -0.70 -2.45 -1.50 -2.75 -1.80 -0.25 -0.35 -1.75 -1.10 -3.25 -1.75 -3 -1.25 -5.15 -2.50 -4.80 -2.85 0.45 -0.45 10.80 5 14.95 7.85 5.25 3.70 13.70 11.85 17.50 17 2.90 3.90 6.35 9.40 6.35 10.10 0 0.90 -1.30 0.25 -2.50 -1.20z"/>
  <path d="M511.85 417.70 c-0.85 -1.70 -1.15 -5.40 -0.55 -6.90 0.40 -1.05 1.85 -1 2.85 0.10 1.05 1.15 1.10 4.05 0.15 6.30 -1 2.40 -1.50 2.50 -2.45 0.50z"/>
  <path d="M635 413.55 c0 -0.25 -0.40 -0.35 -0.85 -0.25 -1.05 0.20 -4.25 -1.30 -4.50 -2.15 -0.25 -0.70 2.10 -0.15 4.95 1.20 1.95 0.95 2.45 1.65 1.15 1.65 -0.40 0 -0.75 -0.20 -0.75 -0.45z"/>
  <path d="M382.25 412.95 c-0.20 -0.30 -0.25 -0.65 -0.10 -0.80 0.35 -0.35 1.35 0.30 1.35 0.90 0 0.60 -0.85 0.60 -1.25 -0.10z"/>
  <path d="M638.75 413 c-0.15 -0.25 0.55 -0.90 1.60 -1.45 1.05 -0.55 2.55 -1.65 3.30 -2.50 0.80 -0.85 1.65 -1.55 1.90 -1.55 0.30 0 0.35 -0.20 0.20 -0.50 -0.15 -0.25 0.05 -0.50 0.45 -0.50 1.05 0 1 0.40 -0.20 2.35 -1.80 2.95 -6.35 5.60 -7.25 4.15z"/>
  <path d="M380.05 411.80 c-0.50 -0.60 -0.45 -0.70 0.25 -0.60 0.50 0.10 1 0.40 1.10 0.70 0.25 0.85 -0.65 0.75 -1.35 -0.10z"/>
  <path d="M391.35 411.80 c-0.35 -0.85 0.45 -1.60 1.90 -1.90 0.55 -0.10 0.95 -0.55 0.95 -1.05 -0.05 -0.45 0.20 -0.85 0.60 -0.85 0.40 0 0.70 0.15 0.70 0.40 -0.05 0.45 -1.45 2.10 -2.80 3.25 -0.90 0.75 -1.10 0.80 -1.35 0.15z"/>
  <path d="M378 410.25 c-0.35 -0.45 -0.55 -0.90 -0.40 -1 0.15 -0.15 0.55 0.05 0.90 0.50 0.35 0.45 0.55 0.90 0.40 1 -0.15 0.15 -0.55 -0.05 -0.90 -0.50z"/>
  <path d="M286.90 409.25 c0.30 -0.55 2.95 -3.35 5.90 -6.25 l5.40 -5.25 -5.45 5.75 c-3 3.15 -5.65 6 -5.90 6.25 -0.25 0.30 -0.25 0.05 0.05 -0.50z"/>
  <path d="M625.80 405.65 c-0.45 -1.30 -0.60 -2.15 -0.35 -1.90 0.55 0.65 1.60 3.85 1.35 4.10 -0.10 0.10 -0.55 -0.85 -1 -2.20z"/>
  <path d="M375.10 404.50 c0 -0.95 0.10 -1.35 0.25 -0.85 0.10 0.45 0.10 1.25 0 1.75 -0.15 0.45 -0.25 0.05 -0.25 -0.90z"/>
  <path d="M325.35 404.70 c-0.20 -0.20 -0.35 -0.50 -0.35 -0.70 0 -0.60 7.40 -2.65 8.05 -2.25 0.20 0.15 0.45 0.05 0.55 -0.20 0.05 -0.20 0.65 -0.60 1.30 -0.75 0.90 -0.30 1.10 -0.15 1.10 0.60 0 1.20 -1.95 1.80 -4.05 1.35 -0.90 -0.20 -1.45 -0.15 -1.45 0.20 0 0.90 -4.50 2.40 -5.15 1.75z"/>
  <path d="M511.10 398.75 c0 -2.65 0.10 -3.65 0.40 -3 0.25 0.55 0.45 1.50 0.45 2.15 0.05 1.70 1.05 0.80 1.05 -0.95 0 -1.55 1.15 -2.05 1.70 -0.70 0.15 0.45 0 0.75 -0.45 0.75 -0.40 0 -0.75 0.25 -0.75 0.50 0 0.30 0.35 0.50 0.80 0.50 0.60 0 0.70 0.40 0.45 1.85 -0.40 2.50 -1 3.05 -2.20 1.95 -0.90 -0.85 -0.95 -0.85 -1.20 0.05 -0.15 0.50 -0.25 -0.90 -0.25 -3.10z"/>
  <path d="M625.50 399.10 c0 -1.05 1.30 -3.25 2.55 -4.35 l1.20 -1 -1.10 1.25 c-0.60 0.70 -1.45 2.05 -1.85 3 -0.40 0.95 -0.75 1.45 -0.80 1.10z"/>
  <path d="M646.10 397.75 c-0.35 -0.40 -0.50 -0.75 -0.30 -0.75 0.15 0 0.15 -0.30 -0.10 -0.65 -0.25 -0.35 -0.05 -0.20 0.45 0.30 0.45 0.55 0.85 1.15 0.85 1.40 0 0.60 -0.15 0.55 -0.90 -0.30z"/>
  <path d="M304.70 393.05 c0.20 -0.30 1.75 -1.25 3.45 -2.10 3.75 -1.90 3.25 -1.25 -0.85 1.05 -1.65 0.90 -2.80 1.40 -2.60 1.05z"/>
  <path d="M617.10 392.40 c-0.10 -0.50 -0.45 -0.75 -0.70 -0.60 -0.55 0.35 -2.90 -1.70 -2.90 -2.60 0 -0.35 0.70 -0.85 1.50 -1.15 0.90 -0.30 1.40 -0.30 1.25 -0.05 -0.20 0.30 0 0.50 0.35 0.50 1.10 0 3.40 2.45 3.40 3.65 0 0.85 -0.30 1.10 -1.35 1.10 -0.80 0 -1.40 -0.30 -1.55 -0.85z"/>
  <path d="M404.50 392 c0 -0.90 2.65 -3.55 4.45 -4.50 0.95 -0.50 1.30 -0.45 1.95 0.20 0.75 0.75 0.75 0.80 -0.05 0.80 -1 0 -1.15 0.80 -0.20 1.15 0.40 0.15 0.15 0.70 -0.75 1.60 -1.60 1.65 -5.40 2.15 -5.40 0.75z"/>
  <path d="M706.20 385.75 c-0.50 -0.40 -0.70 -0.70 -0.45 -0.75 0.75 0 2 0.90 1.70 1.20 -0.15 0.15 -0.70 -0.05 -1.25 -0.45z"/>
  <path d="M416.25 384.50 c-0.15 -0.30 -0.15 -0.95 0 -1.55 0.25 -0.75 0.50 -0.85 1 -0.45 1.10 0.95 1.30 2.50 0.25 2.50 -0.55 0 -1.10 -0.25 -1.25 -0.50z"/>
  <path d="M510.85 382.50 c0.30 -2.90 0.95 -4.20 1.75 -3.70 0.30 0.20 0.20 0.50 -0.30 0.80 -0.45 0.25 -0.80 1.05 -0.85 1.80 -0.05 0.75 -0.25 1.90 -0.45 2.60 -0.30 0.80 -0.35 0.30 -0.15 -1.50z"/>
  <path d="M604.30 383.90 c-3.20 -1.85 -4.25 -4.35 -2.30 -5.40 1.50 -0.80 2.20 -0.10 0.95 0.95 l-1.05 0.85 1.75 1.35 c2.20 1.65 2.45 1.70 2.05 0.10 -0.15 -0.70 -0.10 -1.25 0.20 -1.25 0.75 0 2.20 2.50 1.90 3.30 -0.30 0.85 -2.15 0.90 -3.50 0.10z"/>
  <path d="M699.75 384 l-1.50 -0.40 1.60 -0.05 c0.85 0 1.75 0.20 1.90 0.45 0.35 0.55 0.15 0.55 -2 0z"/>
  <path d="M337.65 382.75 c-0.90 -1 -0.80 -2.75 0.10 -2.75 0.50 0 0.75 0.55 0.75 1.75 0 1.95 0 2 -0.85 1z"/>
  <path d="M695.30 382.75 c-0.15 -0.40 -0.10 -0.75 0.15 -0.75 0.25 0 0.70 0.35 1.05 0.75 0.50 0.60 0.50 0.75 -0.15 0.75 -0.40 0 -0.85 -0.35 -1.05 -0.75z"/>
  <path d="M428.50 373.90 c0 -0.60 0.15 -0.85 0.40 -0.60 0.20 0.25 0.55 0.60 0.75 0.75 0.25 0.15 0.10 0.45 -0.35 0.60 -0.60 0.25 -0.80 0 -0.80 -0.75z"/>
  <path d="M691.70 371.05 c0.20 -0.25 0 -0.60 -0.30 -0.70 -0.40 -0.15 -0.30 -0.30 0.25 -0.30 0.45 -0.05 0.85 0.30 0.85 0.70 0 0.40 -0.25 0.75 -0.55 0.75 -0.25 0 -0.40 -0.20 -0.25 -0.45z"/>
  <path d="M512.75 367.90 c-0.35 -1.50 -0.40 -1.55 -1.05 -0.65 -0.70 0.95 -0.95 0.45 -0.40 -0.95 0.70 -1.80 3.15 -0.20 3.20 2.10 0 1.70 -1.35 1.35 -1.75 -0.50z"/>
  <path d="M664.95 365.10 c-2.80 -3 -3.55 -4.15 -1.65 -2.60 1.90 1.60 4.40 4.50 4.10 4.75 -0.10 0.15 -1.20 -0.80 -2.45 -2.15z"/>
  <path d="M690.10 366.70 c-0.35 -0.40 -0.45 -0.70 -0.25 -0.70 0.20 0 0 -0.25 -0.50 -0.55 -0.45 -0.30 -0.75 -0.70 -0.60 -1 0.20 -0.25 0.05 -0.45 -0.30 -0.45 -0.35 0 -0.50 -0.15 -0.30 -0.30 0.15 -0.20 -0.20 -0.75 -0.80 -1.20 -0.60 -0.50 -0.95 -1.05 -0.75 -1.25 0.55 -0.60 1.25 0.15 2.90 3.05 1.60 2.75 1.85 3.75 0.60 2.40z"/>
  <path d="M578.55 364.80 c-0.70 -0.70 -1.10 -1.40 -1 -1.50 0.40 -0.45 2.60 1.55 2.40 2.15 -0.15 0.40 -0.65 0.15 -1.40 -0.65z"/>
  <path d="M445.80 361.20 c-0.15 -0.40 0.05 -0.70 0.45 -0.70 1 0 1.40 0.85 0.55 1.15 -0.40 0.15 -0.85 -0.05 -1 -0.45z"/>
  <path d="M655.95 357.05 c-0.65 -0.55 -1.05 -1.10 -0.90 -1.25 0.15 -0.20 0.85 0.10 1.50 0.65 0.65 0.55 1.05 1.10 0.90 1.25 -0.15 0.20 -0.85 -0.10 -1.50 -0.65z"/>
  <path d="M510.45 356.15 c-0.10 -2.25 0.10 -3.85 0.65 -4.80 0.55 -1.05 1.40 -0.70 1.15 0.55 -0.10 0.45 -0.35 1.90 -0.50 3.25 -0.35 2.55 -1.20 3.20 -1.30 1z"/>
  <path d="M456.50 356 c-0.90 -0.55 -0.15 -1.45 1 -1.15 0.55 0.15 1 0.45 1 0.65 0 0.60 -1.30 0.95 -2 0.50z"/>
  <path d="M682.75 355.50 c-0.50 -0.55 -0.70 -1 -0.40 -1 0.25 0 0.90 0.45 1.40 1 0.50 0.55 0.70 1 0.40 1 -0.25 0 -0.90 -0.45 -1.40 -1z"/>
  <path d="M350.45 354.45 c-0.55 -0.35 -0.60 -0.45 0 -0.45 0.35 0 1.45 -0.80 2.40 -1.80 0.95 -1 1.85 -1.70 2 -1.50 0.15 0.15 -0.60 1.15 -1.70 2.25 -1.40 1.45 -2.15 1.85 -2.70 1.50z"/>
  <path d="M641.65 350.40 c-1.95 -0.65 -2.15 -1.40 -0.40 -1.40 0.70 0 1.25 0.25 1.25 0.50 0 0.30 0.15 0.45 0.40 0.45 0.90 -0.15 1.60 0.10 1.60 0.55 0 0.60 -0.70 0.55 -2.85 -0.10z"/>
  <path d="M637.25 349 c0.15 -0.25 0.75 -0.50 1.30 -0.50 0.50 0 0.95 0.25 0.95 0.50 0 0.30 -0.60 0.50 -1.30 0.50 -0.70 0 -1.15 -0.20 -0.95 -0.50z"/>
  <path d="M634 348.50 c0 -0.25 0.35 -0.50 0.75 -0.50 0.40 0 0.75 0.25 0.75 0.50 0 0.30 -0.35 0.50 -0.75 0.50 -0.40 0 -0.75 -0.20 -0.75 -0.50z"/>
  <path d="M673.15 345 c-2.75 -2.60 -1.95 -2.60 0.90 0 1.20 1.05 2 1.95 1.70 1.95 -0.25 0 -1.45 -0.85 -2.60 -1.95z"/>
  <path d="M480.30 339.25 c-0.15 -0.45 0 -0.75 0.45 -0.75 0.80 0 1 0.80 0.30 1.20 -0.25 0.15 -0.55 -0.05 -0.75 -0.45z"/>
  <path d="M418.15 338.45 c-0.70 -0.70 -0.30 -1.95 0.65 -1.95 0.75 0 0.90 0.90 0.30 1.85 -0.30 0.50 -0.55 0.50 -0.95 0.10z"/>
  <path d="M482.10 338.45 c0.10 -0.35 0.50 -0.75 0.85 -0.85 0.40 -0.15 0.60 0.05 0.45 0.45 -0.10 0.35 -0.50 0.75 -0.85 0.85 -0.40 0.15 -0.60 -0.05 -0.45 -0.45z"/>
  <path d="M489.75 331.55 c-0.30 -0.55 0.45 -1.15 0.95 -0.70 0.45 0.45 0.35 1.15 -0.15 1.15 -0.30 0 -0.60 -0.20 -0.80 -0.45z"/>
 </g>
 <g fill="#2880f6">
  <path d="M351.75 539.20 c-8 -0.65 -14.55 -1.40 -17.75 -2.05 -2.05 -0.40 -4.65 -0.95 -5.75 -1.15 -9.20 -1.90 -22.85 -9.25 -31.25 -16.85 -9.50 -8.55 -14.75 -15.20 -19.20 -24.40 -4.70 -9.55 -7.30 -18.35 -8 -27.10 -0.15 -1.95 -0.45 -3.90 -0.60 -4.35 -0.15 -0.45 -0.10 -0.80 0.20 -0.80 0.25 0 0.60 1.40 0.80 3.15 0.15 1.70 0.80 4.35 1.35 5.85 0.60 1.50 1.15 4.05 1.25 5.65 0.10 2 0.65 4 1.80 6.40 l1.65 3.50 1.75 -0.35 c2.30 -0.50 3.30 -0.45 6 0.20 5.25 1.25 6.10 1.55 7.70 2.90 3.15 2.70 3.65 3.05 4.90 3.35 1.05 0.30 1.35 0.15 1.60 -0.80 0.15 -0.60 0.05 -1.20 -0.20 -1.25 -0.30 -0.10 -0.40 -0.40 -0.20 -0.65 0.15 -0.25 -0.10 -0.45 -0.55 -0.45 -0.45 0 -0.65 -0.20 -0.50 -0.50 0.15 -0.25 0 -0.50 -0.35 -0.50 -0.40 0 -1.20 -1.05 -1.85 -2.35 -0.90 -1.85 -1 -2.40 -0.45 -2.70 0.45 -0.30 0.40 -0.45 -0.35 -0.45 -0.85 0 -0.85 -0.10 -0.25 -0.50 0.55 -0.35 0.55 -0.50 0.10 -0.50 -0.35 0 -0.50 -0.20 -0.35 -0.50 0.15 -0.25 0.05 -0.50 -0.25 -0.50 -0.35 0 -0.45 -0.40 -0.25 -1 0.25 -0.75 0.10 -1 -0.55 -1 -0.65 0 -0.75 -0.30 -0.55 -1.45 0.20 -0.95 0.10 -1.55 -0.30 -1.75 -0.35 -0.10 -0.25 -0.25 0.20 -0.25 0.50 -0.05 0.95 0.50 1.15 1.35 0.80 3.15 3 8.25 5.45 12.40 6.25 10.55 13.80 17.65 24.60 23.05 3.85 1.95 6.90 3 16.05 5.40 0.65 0.15 2.50 2.50 4.75 5.90 2.05 3.10 5.60 7.60 8.05 10.15 2.45 2.50 4.40 4.70 4.40 4.85 0 0.20 -0.50 0.30 -1.10 0.25 -0.65 -0.05 -2.05 -0.15 -3.15 -0.20z m-36.40 -29.45 c0 -0.40 -0.40 -0.75 -0.85 -0.75 -0.45 0 -1.05 -0.25 -1.40 -0.60 -0.35 -0.35 -0.60 -0.45 -0.60 -0.25 0 0.40 2.05 2.35 2.50 2.35 0.20 0 0.35 -0.35 0.35 -0.75z m-9.65 -8.15 c-1.10 -0.25 -1.55 0.35 -0.70 0.90 0.45 0.30 0.85 0.25 1.10 -0.15 0.20 -0.35 0.05 -0.65 -0.40 -0.75z"/>
  <path d="M670.50 538.70 c0 -0.15 1.10 -1.45 2.45 -2.85 3.90 -4.15 8.15 -9.85 11.40 -15.45 0.95 -1.60 1.40 -1.85 3.50 -2.15 10.80 -1.45 22.85 -7.55 31.15 -15.70 9.40 -9.25 15.70 -22.40 17.20 -36 0.30 -2.90 0.75 -5.05 0.95 -4.70 0.55 0.90 -0.90 11.30 -2.15 15.30 -0.60 1.90 -1.05 4.60 -1.10 6 0 1.45 -0.20 2.85 -0.50 3.20 -0.25 0.35 -0.40 1.10 -0.25 1.75 0.20 1.10 0.25 1.10 0.55 0.10 0.55 -1.60 5.75 -3 6.50 -1.75 0.15 0.20 0.85 0.30 1.55 0.15 0.90 -0.15 1.25 0 1.25 0.60 0 0.45 0.40 0.80 1 0.80 0.65 0 1 -0.35 1 -1 0 -0.60 0.35 -1 0.80 -1 0.65 0 0.75 0.35 0.45 1.95 -0.25 1.65 -0.20 1.95 0.70 2.20 0.70 0.15 1.05 0 1.05 -0.45 0 -0.40 0.25 -0.70 0.50 -0.70 0.30 0 0.50 -0.95 0.50 -2.10 0 -1.55 0.35 -2.55 1.25 -3.60 0.70 -0.80 1.65 -2.65 2.10 -4.15 0.50 -1.65 1.10 -2.65 1.60 -2.70 0.55 0 0.60 -0.10 0.20 -0.30 -0.95 -0.35 -0.80 -1.65 0.25 -1.65 0.55 0 0.65 -0.15 0.25 -0.40 -0.85 -0.50 -0.25 -6.10 0.65 -6.45 0.80 -0.30 0.95 -1.65 0.20 -1.65 -0.25 0 -0.50 -1.10 -0.50 -2.50 0 -1.90 0.20 -2.50 0.75 -2.50 0.40 0 0.75 0.15 0.80 0.40 0 0.20 0.10 0.80 0.25 1.35 0.25 1.15 -0.65 9.40 -1.35 13 -5.10 24.65 -21.75 45.50 -44.65 56 -7.55 3.45 -16.55 5.75 -26.25 6.75 -5.60 0.55 -14.05 0.70 -14.05 0.20z"/>
  <path d="M503.25 533 c-4.10 -1.05 -12.35 -3.25 -18.25 -4.95 -5.90 -1.70 -11.55 -3.25 -12.50 -3.55 -4.80 -1.30 -15.90 -4.60 -17.10 -5.10 -0.80 -0.30 -1.40 -0.70 -1.40 -0.95 0 -0.25 -0.35 -0.30 -0.80 -0.10 -0.65 0.25 -0.75 0.10 -0.50 -0.75 0.20 -0.55 0.90 -4.45 1.55 -8.65 1.25 -7.85 1.75 -9.60 1.75 -6.10 0 2.80 1.65 4.35 3.90 3.65 0.90 -0.25 2.05 -0.95 2.55 -1.55 0.75 -0.90 1.80 -1.25 5.85 -1.75 2.70 -0.35 5.80 -0.80 6.85 -1 1 -0.15 2.15 -0.10 2.50 0.20 0.60 0.50 1.15 0.45 12.35 -1.20 7.10 -1.05 43.25 -1.55 45.75 -0.65 4.10 1.45 6.50 1.90 7 1.25 1.50 -1.95 4.15 -2.25 9.80 -1.05 1.95 0.40 4.70 0.70 6.15 0.65 1.40 -0.05 8.90 0.20 16.65 0.55 8.15 0.40 15.10 0.50 16.50 0.25 1.30 -0.20 2.65 -0.40 2.90 -0.45 0.30 0 0.60 0.80 0.75 1.75 0.15 1.05 0.55 1.80 1.05 1.90 0.60 0.10 0.95 -0.55 1.40 -3 1.25 -6.35 1.25 -6.40 1.95 -5.95 0.50 0.30 0.60 1.25 0.30 4 -0.30 3 -0.45 3.55 -1.25 3.55 -0.55 0 -0.95 0.25 -0.95 0.50 0 0.30 0.25 0.50 0.50 0.50 0.85 0 0.55 1.40 -0.35 1.65 -0.80 0.20 -0.80 0.25 0.05 0.30 0.70 0.05 0.85 0.30 0.60 1.20 -0.15 0.60 -0.30 1.45 -0.30 1.90 0 0.60 -0.40 0.70 -1.50 0.55 -1.25 -0.20 -1.50 -0.05 -1.50 0.85 0 1.10 -0.70 1.40 -1.25 0.55 -0.55 -0.90 -2.05 -0.50 -3.75 1 -0.90 0.80 -2.80 1.80 -4.20 2.20 -1.40 0.40 -4.25 1.20 -6.30 1.75 -2.05 0.60 -9.25 2.60 -16 4.50 -6.75 1.90 -15.75 4.40 -20 5.50 -4.25 1.10 -9.50 2.45 -11.60 3 -2.15 0.60 -5.60 1.50 -7.65 2.05 -2.05 0.55 -5.45 1.45 -7.50 2 -2.05 0.55 -4.35 1 -5.10 0.95 -0.80 0 -4.75 -0.90 -8.90 -1.95z m91.25 -27 c0 -0.65 -0.55 -0.65 -1.50 0 -0.60 0.40 -0.55 0.50 0.40 0.50 0.60 0 1.10 -0.20 1.10 -0.50z"/>
  <path d="M441.75 514.20 c-1.10 -0.40 -2.40 -0.85 -2.85 -1 -0.50 -0.20 -0.90 -0.50 -0.90 -0.70 0 -0.20 -0.40 -0.35 -0.85 -0.30 -0.85 0.05 -0.90 -1.20 -0.90 -20.10 -0.05 -11.10 0.15 -20.30 0.35 -20.40 0.20 -0.15 0.40 2.55 0.40 5.95 0 7.15 0.90 17 1.55 17.25 0.25 0.10 0.45 0.50 0.45 0.90 0 0.40 0.75 1.45 1.65 2.35 0.85 0.85 2.20 2.40 2.90 3.35 l1.35 1.75 0.55 -2 c0.35 -1.10 0.75 -3.45 0.90 -5.25 0.15 -1.80 0.55 -4.20 0.95 -5.40 0.40 -1.15 0.70 -2.80 0.70 -3.60 0 -0.85 0.35 -1.65 0.80 -1.90 0.55 -0.30 0.75 -0.85 0.55 -1.55 -0.15 -0.55 -0.10 -1.05 0.15 -1.05 0.75 0 1.05 -1.65 0.40 -2.10 -0.50 -0.30 -0.40 -0.40 0.25 -0.40 0.45 0 0.85 0.05 0.85 0.15 0 0.35 -2.10 12.50 -2.55 15 -0.40 1.80 -0.85 2.85 -1.25 2.85 -0.40 0 -0.70 0.25 -0.70 0.50 0 0.30 0.25 0.50 0.50 0.50 0.90 0 0.55 1.50 -0.35 1.55 -0.55 0 -0.65 0.15 -0.25 0.30 1.25 0.50 0.05 8.95 -1.35 9.30 -0.65 0.20 -0.65 0.25 0.10 0.30 1 0.05 1 0.10 0.25 2.60 -0.60 2.15 -0.75 2.15 -3.65 1.15z"/>
  <path d="M599.70 494.40 c0.15 -0.65 0.30 -1.55 0.30 -2 0 -0.60 0.40 -0.90 1.05 -0.90 0.90 0 1 0.20 0.70 1.65 -0.45 2.10 -0.65 2.35 -1.60 2.35 -0.55 0 -0.70 -0.30 -0.45 -1.10z"/>
  <path d="M600.50 490.30 c0 -1.25 0.60 -2.30 1.30 -2.30 0.75 0 0.90 0.90 0.40 2.20 -0.40 1 -1.70 1.05 -1.70 0.10z"/>
  <path d="M450 476 c0 -0.25 0.35 -0.50 0.75 -0.50 0.40 0 0.75 0.25 0.75 0.50 0 0.30 -0.35 0.50 -0.75 0.50 -0.40 0 -0.75 -0.20 -0.75 -0.50z"/>
  <path d="M290.35 474.50 c-0.15 -0.50 0 -1.05 0.35 -1.20 0.30 -0.10 0.15 -0.25 -0.30 -0.25 -1.05 -0.05 -1.20 -0.85 -0.25 -1.25 0.45 -0.25 0.45 -0.35 0 -0.60 -0.40 -0.15 -0.50 -0.80 -0.30 -1.75 0.15 -0.80 0.05 -1.45 -0.20 -1.45 -0.30 0 -0.40 -1.05 -0.25 -2.50 0.15 -1.65 0.05 -2.50 -0.35 -2.50 -0.30 0 -0.55 -0.35 -0.55 -0.75 0 -0.40 0.35 -0.75 0.75 -0.75 0.55 0 0.75 0.60 0.75 2.40 0 1.30 0.45 4.35 1 6.80 1.20 5.35 1.15 4.80 0.30 4.80 -0.35 0 -0.80 -0.45 -0.95 -1z"/>
  <path d="M736.90 458.70 c-0.10 -1.25 0 -2.55 0.20 -2.85 0.20 -0.35 0.40 0.70 0.40 2.30 0 3.40 -0.35 3.75 -0.60 0.55z"/>
  <path d="M288.50 456.25 c0 -1.35 0.25 -2.25 0.55 -2.25 0.40 0 0.50 -0.75 0.35 -2.20 -0.20 -1.70 -0.10 -2.30 0.50 -2.55 0.60 -0.20 0.70 0.05 0.40 1.60 -0.15 1.05 -0.30 3.20 -0.30 4.80 0 2.20 -0.15 2.85 -0.75 2.85 -0.55 0 -0.75 -0.60 -0.75 -2.25z"/>
  <path d="M663.20 456.60 c-0.55 -0.45 -1.50 -1.70 -2.10 -2.75 -1.05 -1.80 -1.05 -2 -0.35 -3.70 l0.75 -1.80 1.30 1.20 c1.70 1.55 3.35 5.35 2.95 6.80 -0.30 1.35 -1.10 1.45 -2.55 0.25z"/>
  <path d="M361.10 456.65 c-0.65 -0.15 -1.25 -0.50 -1.40 -0.90 -0.35 -0.85 1.10 -4.20 2.40 -5.60 0.85 -0.90 1.20 -1 2.20 -0.55 1.05 0.50 1.20 0.80 0.90 2.10 -0.40 1.90 -2.10 5.30 -2.60 5.25 -0.20 -0.05 -0.85 -0.20 -1.50 -0.30z"/>
  <path d="M269 455.90 c0 -0.35 0.25 -1 0.50 -1.40 0.40 -0.60 0.50 -0.55 0.50 0.35 0 0.60 -0.20 1.25 -0.50 1.40 -0.25 0.15 -0.50 0 -0.50 -0.35z"/>
  <path d="M755 451 c0 -0.55 0.35 -1 0.75 -1 0.40 0 0.75 0.45 0.75 1 0 0.55 -0.35 1 -0.75 1 -0.40 0 -0.75 -0.45 -0.75 -1z"/>
  <path d="M735.35 447.20 c-0.20 -0.20 -0.35 -0.85 -0.35 -1.40 0 -1.45 -2.80 -9.40 -4.35 -12.50 -0.70 -1.40 -1.95 -3.50 -2.75 -4.70 -0.80 -1.15 -1.40 -2.40 -1.25 -2.75 0.45 -1.35 7.40 12.85 8.65 17.65 0.75 3 0.80 4.40 0.05 3.70z"/>
  <path d="M270.65 444.15 c0.25 -1.60 0.60 -3.10 0.80 -3.30 0.20 -0.20 0.15 0.95 -0.15 2.60 -0.30 1.65 -0.70 3.10 -0.85 3.25 -0.15 0.20 -0.10 -1 0.20 -2.55z"/>
  <path d="M290.75 446.50 c0.20 -0.35 0.10 -0.75 -0.25 -1 -0.40 -0.25 -0.35 -0.45 0.20 -0.65 0.95 -0.40 1.15 1.40 0.20 1.95 -0.35 0.25 -0.40 0.15 -0.15 -0.30z"/>
  <path d="M471 444.55 c0 -0.25 0.35 -0.60 0.80 -0.75 1.45 -0.55 41.45 -0.35 41.60 0.20 0.25 0.70 3.50 0.60 3.75 -0.10 0.25 -0.85 33.95 -0.80 34.25 0.05 0.25 0.80 9.45 0.75 9.75 -0.05 0.20 -0.50 0.30 -0.50 0.30 0 0.05 0.70 11.85 0.90 12.15 0.15 0.10 -0.25 2.50 -0.50 5.40 -0.60 4.65 -0.20 5.25 -0.10 5.40 0.70 0.15 0.80 -2.80 0.85 -56.60 0.85 -33 0 -56.80 -0.20 -56.80 -0.45z"/>
  <path d="M754 444 c0 -0.25 0.35 -0.50 0.75 -0.50 0.40 0 0.75 0.25 0.75 0.50 0 0.30 -0.35 0.50 -0.75 0.50 -0.40 0 -0.75 -0.20 -0.75 -0.50z"/>
  <path d="M367.25 441.85 c-0.75 -4 4.10 -9.40 5.05 -5.65 0.35 1.45 -0.05 2.30 -1.10 2.30 -0.40 0 -0.70 0.25 -0.70 0.50 0 0.30 0.25 0.50 0.50 0.50 0.90 0 0.50 1.55 -0.75 2.75 -1.65 1.70 -2.65 1.60 -3 -0.40z"/>
  <path d="M658.55 442.55 c-0.05 -0.45 -0.50 -0.60 -1.55 -0.45 -1.35 0.20 -1.65 0 -3.05 -2.25 -1.50 -2.45 -1.75 -4.35 -0.55 -4.75 0.35 -0.10 0.55 0.05 0.50 0.40 -0.15 0.60 0.65 1.20 2.15 1.65 1 0.30 3.15 4.55 2.80 5.45 -0.20 0.50 -0.30 0.50 -0.30 -0.05z"/>
  <path d="M586 438.50 c0 -1.45 0.20 -2 0.75 -2 0.55 0 0.75 0.55 0.75 2 0 1.45 -0.20 2 -0.75 2 -0.55 0 -0.75 -0.55 -0.75 -2z"/>
  <path d="M273.20 434.25 c0.20 -0.80 0.60 -1.70 0.85 -1.95 0.25 -0.30 0.25 0.20 -0.05 1.20 -0.60 2.10 -1.25 2.75 -0.80 0.75z"/>
  <path d="M751.70 434.15 c0.20 -0.45 0.05 -1 -0.30 -1.25 -0.50 -0.30 -0.40 -0.40 0.25 -0.40 0.45 0 0.85 0.20 0.85 0.45 0 0.25 0.15 0.80 0.30 1.25 0.20 0.55 0.05 0.80 -0.55 0.80 -0.60 0 -0.75 -0.25 -0.55 -0.85z"/>
  <path d="M585.70 433.55 c0.15 -0.25 -0.05 -0.60 -0.50 -0.75 -0.45 -0.20 -0.70 -0.45 -0.55 -0.65 0.40 -0.35 1.85 0.75 1.85 1.40 0 0.25 -0.25 0.45 -0.55 0.45 -0.25 0 -0.40 -0.20 -0.25 -0.45z"/>
  <path d="M296.25 431.15 c0.25 -0.50 0.40 -1.30 0.45 -1.75 0 -0.50 0.35 -0.90 0.70 -0.90 0.40 0 0.60 -0.30 0.40 -0.75 -0.15 -0.45 0 -0.75 0.50 -0.75 0.50 0 0.70 -0.30 0.50 -0.75 -0.15 -0.45 0 -0.75 0.50 -0.75 0.50 0 0.70 -0.30 0.55 -0.70 -0.15 -0.40 0.10 -0.80 0.70 -0.95 0.65 -0.20 0.95 -0.60 0.85 -1.20 -0.10 -0.60 0.20 -0.95 1 -1.05 1.05 -0.15 0.95 0.10 -1.05 2.75 -1.20 1.60 -2.80 3.95 -3.55 5.30 -1.35 2.30 -2.25 3.20 -1.55 1.50z"/>
  <path d="M647.40 428.15 c-2.75 -3.15 -4.15 -7.10 -2.85 -7.90 0.80 -0.50 1.10 0.05 1.05 1.85 0 1 0.35 2.05 0.95 2.70 0.80 0.85 2.20 4.20 1.75 4.20 -0.10 0 -0.50 -0.40 -0.90 -0.85z"/>
  <path d="M375.35 428.20 c-0.20 -0.20 -0.35 -1.05 -0.35 -1.90 0 -1.40 0.05 -1.45 0.85 -0.70 0.60 0.65 0.70 1.15 0.35 1.90 -0.25 0.60 -0.65 0.90 -0.85 0.70z"/>
  <path d="M378.10 426.20 c-0.75 -0.80 -0.40 -1.70 0.70 -1.70 0.75 0 0.90 0.90 0.30 1.80 -0.25 0.45 -0.55 0.40 -1 -0.10z"/>
  <path d="M748.60 425.65 c-0.30 -0.15 -0.50 -0.45 -0.30 -0.70 0.15 -0.25 0 -0.45 -0.30 -0.45 -0.30 0 -0.45 -0.20 -0.30 -0.45 0.20 -0.25 0 -0.60 -0.30 -0.70 -0.50 -0.20 -0.50 -0.30 -0.05 -0.30 0.35 -0.05 1 0.50 1.45 1.20 0.90 1.35 0.85 1.75 -0.20 1.40z"/>
  <path d="M378.90 419.90 c0.45 -0.45 0.75 -0.45 1.20 0 0.45 0.45 0.35 0.60 -0.60 0.60 -0.95 0 -1.05 -0.15 -0.60 -0.60z"/>
  <path d="M718.85 417.10 c-1.55 -1.60 -2.85 -3.05 -2.85 -3.30 0 -0.25 1.40 0.95 3.10 2.60 1.70 1.70 3 3.15 2.85 3.30 -0.15 0.15 -1.55 -1 -3.10 -2.60z"/>
  <path d="M306.40 417.45 c0.60 -0.70 1.10 -1.55 1.10 -1.85 0 -0.35 0.35 -0.60 0.75 -0.60 1.15 0 0.85 0.60 -1.15 2.25 -1.60 1.25 -1.70 1.30 -0.70 0.20z"/>
  <path d="M511.35 416.65 c-0.50 -0.45 -0.40 -5.25 0.05 -6.05 0.25 -0.35 0.40 0.90 0.40 2.90 -0.05 1.90 -0.05 3.50 -0.10 3.50 0 0 -0.20 -0.15 -0.35 -0.35z"/>
  <path d="M513.55 416.55 c-0.55 -0.35 -0.55 -0.45 0 -0.65 0.60 -0.20 0.60 -0.45 0.05 -1.35 -0.55 -0.95 -0.50 -1.05 0.40 -1.05 0.70 0 1 0.35 1 1.15 0 1.55 -0.65 2.40 -1.45 1.90z"/>
  <path d="M283.05 414.40 c1.85 -2.65 4.10 -5.50 5.40 -6.90 1.55 -1.60 1 -0.80 -2.95 4.40 -3.15 4.10 -4.60 5.55 -2.45 2.50z"/>
  <path d="M513.60 412.20 c0.20 -1.05 1.10 -1.15 1.30 -0.05 0.10 0.50 -0.15 0.85 -0.65 0.85 -0.50 0 -0.75 -0.30 -0.65 -0.80z"/>
  <path d="M312.30 411.75 c-0.15 -0.45 0 -0.75 0.45 -0.75 0.80 0 1 0.80 0.30 1.20 -0.25 0.15 -0.55 -0.05 -0.75 -0.45z"/>
  <path d="M710.85 410.40 c-0.75 -0.55 -1.35 -1.25 -1.35 -1.55 0 -0.35 0.35 -0.20 0.70 0.25 0.35 0.50 0.75 0.75 0.90 0.65 0.15 -0.15 0.55 0.05 0.90 0.50 1 1.20 0.40 1.30 -1.15 0.15z"/>
  <path d="M707.15 408.15 c-0.35 -0.10 -0.65 -0.60 -0.65 -1.05 0 -0.65 0.10 -0.70 0.45 -0.20 0.20 0.40 0.60 0.65 0.85 0.60 0.25 -0.05 0.50 0.15 0.60 0.45 0.20 0.60 -0.20 0.65 -1.25 0.20z"/>
  <path d="M736.60 407.25 c-0.60 -0.65 -0.90 -1.35 -0.65 -1.45 0.20 -0.15 0.90 0.40 1.50 1.20 1.30 1.80 0.65 2 -0.85 0.25z"/>
  <path d="M732.85 403.20 c-1.05 -1 -1.80 -1.90 -1.60 -2.10 0.15 -0.15 1.25 0.65 2.40 1.80 2.55 2.55 1.85 2.80 -0.80 0.30z"/>
  <path d="M513.55 401.15 c-0.75 -0.80 -0.50 -1.30 0.60 -1.05 0.45 0.10 0.60 0.45 0.40 0.95 -0.25 0.75 -0.40 0.75 -1 0.10z"/>
  <path d="M728.05 398.75 c-0.65 -0.70 -0.95 -1.25 -0.70 -1.25 0.25 0 1 0.55 1.65 1.25 0.65 0.70 0.95 1.25 0.70 1.25 -0.25 0 -1 -0.60 -1.65 -1.25z"/>
 </g>
 <g fill="#01235f">
  <path d="M468.25 606.45 c-4.95 -0.60 -9.30 -1.40 -14.25 -2.55 -4.60 -1.10 -10.50 -3.30 -10.50 -3.90 0 -0.45 5.05 -1 9.15 -1 1.70 0 4.30 -0.20 5.80 -0.50 1.55 -0.25 5.15 -0.70 8.05 -1.05 2.90 -0.30 6.25 -0.70 7.50 -0.95 1.25 -0.25 3.65 -0.65 5.40 -0.95 7.95 -1.40 9.85 -1.80 17.35 -3.65 4.40 -1.10 10.15 -2.65 12.75 -3.45 11.35 -3.60 21.35 -7.05 27.30 -9.45 3.50 -1.40 8.55 -3.35 11.20 -4.30 5.40 -2 27.50 -12.65 27.50 -13.30 0 -0.20 -2.10 -0.40 -4.70 -0.40 -5.65 0 -18.80 -0.85 -23.30 -1.50 -1.80 -0.25 -5.05 -0.70 -7.25 -0.95 -15.10 -2 -17.45 -2.45 -29.20 -5.30 -5 -1.20 -5.95 -1.30 -7.25 -0.75 -3.95 1.60 -11.70 3.05 -26.55 4.85 -5.40 0.70 -10.90 0.85 -24 0.85 -16.80 0 -22.45 -0.40 -31 -2.20 -1.35 -0.25 -3.15 -0.65 -4 -0.80 -3.05 -0.55 -19.60 -4.75 -22.50 -5.65 -13.40 -4.25 -25.10 -10.10 -33.60 -16.90 -5.60 -4.40 -9.25 -8.70 -12.20 -14.35 -3.10 -6 -2.45 -6.30 3.85 -2 18.10 12.40 29.70 18.35 46.45 23.95 18.35 6.05 40.30 8.50 66.60 7.30 7.65 -0.30 14.55 -0.75 15.35 -0.90 2.15 -0.40 0.90 -0.95 -6.10 -2.65 -5.55 -1.35 -18.70 -5.20 -26.35 -7.70 -1.90 -0.65 -6.55 -2.10 -10.25 -3.30 -3.70 -1.15 -8 -2.50 -9.50 -3.05 -1.50 -0.50 -6.80 -2.30 -11.75 -3.95 -16.65 -5.65 -20.45 -7.05 -33.25 -12.10 -20.30 -8.05 -34.20 -15.50 -39.95 -21.40 -4.25 -4.30 -7.05 -10.45 -7.05 -15.30 0 -2.35 0.20 -2.95 1.30 -3.95 0.75 -0.70 1.70 -1.25 2.15 -1.25 0.55 0 1.90 1.95 3.80 5.55 2.15 4 3.70 6.20 5.50 7.80 3.55 3.25 9.85 6.75 7.60 4.25 -1.25 -1.40 -3.80 -7.90 -4.60 -11.85 -1.45 -6.75 -0.85 -10.45 2.05 -12.70 3 -2.35 4.20 -1.10 5.90 6.15 0.75 2.95 2 7.20 2.85 9.40 2.20 5.65 6.65 14.50 7.85 15.55 3.05 2.75 45.15 18.95 63.35 24.40 1.65 0.45 7.50 2.25 13 3.95 15.40 4.75 15.70 4.85 20.25 6.15 2.35 0.65 7.75 2.20 12 3.35 4.25 1.20 10 2.75 12.75 3.55 2.75 0.75 6.90 1.85 9.25 2.40 12.65 2.95 11.30 2.75 14.40 1.85 3.55 -1 24.25 -6.70 26.60 -7.30 4.05 -1.05 17.90 -5.10 20.50 -6 0.70 -0.25 4.50 -1.40 8.50 -2.50 10.95 -3.10 29.35 -8.95 39.25 -12.50 2.20 -0.80 6.70 -2.35 10 -3.50 3.30 -1.15 6.70 -2.35 7.50 -2.75 0.85 -0.35 3.30 -1.40 5.50 -2.25 6.20 -2.45 15.90 -7.25 16.80 -8.30 1 -1.15 6.95 -12.95 8.45 -16.75 1.30 -3.30 2.10 -5.60 3.45 -10.30 1.65 -5.60 4.30 -7.10 7.10 -4.05 1.15 1.30 1.45 2.10 1.45 3.90 0 5.05 -2 12.90 -4.70 18.65 -0.65 1.30 -1 2.35 -0.80 2.35 0.60 0 4.70 -2.95 6.80 -4.85 2.05 -1.90 5.70 -6.85 5.70 -7.75 0 -0.85 1.95 -4.75 2.70 -5.35 1.15 -0.95 2.85 -0.45 4 1.10 0.85 1.15 1.05 2.15 1.05 5.25 0 3.40 -0.20 4.20 -1.70 6.95 -2.45 4.55 -6.40 8.60 -12.15 12.50 -4.50 3.05 -7.15 4.60 -16.10 9.45 -1.30 0.70 -3.90 3.45 -7.75 8.30 -7.65 9.60 -13.90 16.30 -18.80 20.25 -4.45 3.55 -7.40 6.15 -7.05 6.15 0.65 0 22.50 -10.60 26.05 -12.65 10.95 -6.30 18.05 -10.80 23.45 -14.90 4.20 -3.20 4.80 -2.45 2.25 2.70 -4.90 9.70 -13.40 17.35 -28 25.05 -8.55 4.50 -19.60 8.45 -33.60 12.05 -9.75 2.45 -10.35 2.70 -15.85 6.40 -16.25 10.95 -49.10 27.05 -64.95 31.85 -2.80 0.85 -3.50 1.25 -2.90 1.55 2.35 1.35 32.85 2.10 51.10 1.30 6 -0.25 8.85 -0.25 8.50 0.10 -1.50 1.50 -18.15 7.60 -23.25 8.55 -1.80 0.30 -4.15 0.75 -5.25 1 -7.60 1.70 -22 1.60 -34.75 -0.25 -5.60 -0.80 -6.75 -1 -13.80 -2.70 l-4.55 -1.10 -6.70 1.75 c-12.85 3.30 -23.80 4.40 -33.20 3.25z m125.50 -57.15 c3.35 -0.85 5.55 -2.05 11.35 -6 7.60 -5.20 14.60 -10.85 21.10 -16.95 3.30 -3.10 6.70 -6.15 7.60 -6.85 0.90 -0.70 2.15 -1.85 2.70 -2.65 l1.10 -1.35 -2.70 1.05 c-13.40 5.40 -39.25 14.15 -55.65 18.95 -3 0.85 -6.75 2 -8.25 2.50 -4.35 1.45 -14.60 4.30 -22.50 6.25 -11.05 2.70 -11.45 2.80 -10.25 3.25 0.55 0.20 4.05 0.65 7.75 0.95 3.70 0.35 8.65 0.80 11 1 7.45 0.75 33.90 0.65 36.75 -0.15z"/>
  <path d="M574.15 544.70 c-0.65 -0.15 -1.15 -0.45 -1.15 -0.60 0 -0.20 4.45 -1.65 9.90 -3.25 5.40 -1.60 12 -3.55 14.60 -4.35 7.30 -2.30 15.55 -4.50 16.70 -4.50 1.05 0.05 1.05 0.05 0.05 0.80 -5.65 4.15 -13 8.20 -19.15 10.40 -3.15 1.10 -4.60 1.30 -11.75 1.50 -4.45 0.15 -8.60 0.10 -9.20 0z"/>
  <path d="M440.25 592.65 c-3.70 -0.30 -11.95 -1.70 -17 -2.95 -20.45 -5.05 -38.80 -15.15 -50 -27.50 -3.45 -3.85 -7.25 -9 -7.25 -9.95 0 -0.25 -0.45 -1.05 -1 -1.75 -1.05 -1.35 -1.25 -2 -0.55 -2 0.25 0 3.15 1.75 6.40 3.90 17.90 11.80 29.95 18.10 51.90 27.05 11.85 4.85 23.65 9.75 27.30 11.35 1.55 0.65 3.25 1.25 3.75 1.25 0.55 0.05 0.05 0.25 -1.05 0.50 -1.85 0.35 -7.95 0.40 -12.50 0.10z"/>
  <path d="M554.70 590.95 c-0.20 -0.35 3.70 -2.15 7.05 -3.15 3.10 -0.95 13 -3.60 25.75 -6.85 11 -2.85 22.65 -6.65 32.85 -10.75 11.70 -4.70 27.40 -13.35 35.45 -19.50 5.60 -4.25 6.05 -3.60 2.10 3 -2.75 4.50 -9.35 11.60 -14.40 15.55 -12.85 9.95 -33.70 17.90 -53.75 20.55 -6.45 0.85 -34.65 1.75 -35.05 1.15z"/>
  <path d="M465 589.40 c-7.55 -1.60 -20.15 -6.20 -29.85 -10.90 -10.85 -5.30 -23.15 -12.95 -33.65 -21.10 l-3.25 -2.50 2.25 0.25 c3.90 0.40 16.10 3.15 19.75 4.45 1.95 0.70 8.25 3.45 14 6.15 10.35 4.75 15.50 6.90 22.65 9.45 4.15 1.45 7.70 1.65 12.35 0.60 1.65 -0.40 4.80 -1.10 7 -1.55 2.20 -0.45 6.60 -1.40 9.75 -2.15 6.50 -1.45 6.40 -1.55 -2.25 -2.55 -6.30 -0.75 -15.45 -2.60 -16.15 -3.25 -0.75 -0.75 4.40 -1.95 16.40 -3.80 5.65 -0.85 11.70 -1.80 13.50 -2.15 3.30 -0.60 18.55 -0.75 22.25 -0.20 1.10 0.15 3 0.40 4.25 0.60 4.65 0.65 13.75 2.40 14.15 2.80 0.25 0.20 -0.30 0.50 -1.25 0.70 -0.90 0.20 -5.70 1.65 -10.65 3.25 -11.60 3.80 -16.35 5.25 -19.75 6.05 -2.35 0.55 -2.60 0.70 -1.50 1 0.70 0.15 5.20 0.20 10.10 0.10 5.40 -0.15 8.90 -0.05 9.10 0.25 0.85 1.40 -25 10.05 -39.95 13.40 -7.90 1.75 -14.40 2.15 -19.25 1.10z"/>
  <path d="M435.50 542.50 c-5.35 -0.55 -13.75 -2.05 -22.50 -4 -10.15 -2.25 -25.30 -8.35 -30.20 -12.15 -4.75 -3.65 -14.15 -13.15 -13.60 -13.75 0.45 -0.45 12.20 4.45 17.85 7.45 5.85 3.10 27.95 11.75 41.95 16.45 10.20 3.45 12.75 4.45 14.75 5.80 0.85 0.65 0.70 0.70 -1.75 0.65 -1.50 -0.05 -4.45 -0.25 -6.50 -0.45z"/>
 </g>
</svg>